<svg width="186" height="64" viewBox="0 0 186 64" fill="none" xmlns="http://www.w3.org/2000/svg">
<rect width="186" height="64" rx="23.4118" fill="#111111"/>
<g clip-path="url(#clip0_1501_8770)">
<path d="M40.9783 49.7492C42.1524 49.7492 43.1764 48.7252 43.1764 47.5511V42.4175H44.6441C45.5249 42.4175 46.1119 41.8303 46.1119 40.9497V26.2875H28.5131V40.9499C28.5131 41.8305 29.1002 42.4176 29.9808 42.4176H31.4487V47.5512C31.4487 48.7254 32.4724 49.7493 33.6468 49.7493C34.8208 49.7493 35.8447 48.7254 35.8447 47.5512V42.4176H38.7803V47.5512C38.7801 48.7252 39.8041 49.7492 40.9783 49.7492Z" fill="white"/>
<path d="M49.7777 40.9499C50.9519 40.9499 51.9757 39.926 51.9757 38.7517V28.4847C51.9757 27.3167 50.952 26.2875 49.7777 26.2875C48.6034 26.2875 47.5796 27.3167 47.5796 28.4847V38.7517C47.5796 39.9259 48.6033 40.9499 49.7777 40.9499Z" fill="white"/>
<path d="M24.8472 40.9499C26.0215 40.9499 27.0454 39.926 27.0454 38.7517V28.4847C27.0454 27.3167 26.0217 26.2875 24.8472 26.2875C23.673 26.2875 22.6493 27.3167 22.6493 28.4847V38.7517C22.6494 39.9259 23.673 40.9499 24.8472 40.9499Z" fill="white"/>
<path d="M44.3504 14.8533C44.0569 14.558 43.6201 14.558 43.3267 14.8533L41.3581 16.8153L41.2673 16.906C40.1 16.3214 38.7913 16.0295 37.3339 16.0267C37.3268 16.0267 37.3197 16.0265 37.3126 16.0265H37.3124C37.305 16.0265 37.2982 16.0267 37.2909 16.0267C35.8335 16.0295 34.5249 16.3214 33.3577 16.906L33.2667 16.8153L31.2981 14.8533C31.0045 14.558 30.5678 14.558 30.2744 14.8533C29.9808 15.1469 29.9808 15.5827 30.2744 15.8762L32.1787 17.7807C31.5651 18.1904 31.0087 18.6917 30.5248 19.2651C29.3665 20.6381 28.6276 22.4251 28.526 24.3612C28.5251 24.3814 28.5231 24.4013 28.5222 24.4214C28.5159 24.5533 28.5131 24.6858 28.5131 24.8188H46.1118C46.1118 24.6859 46.1086 24.5533 46.1027 24.4214C46.1017 24.4013 46.0997 24.3814 46.0986 24.3612C45.9972 22.4251 45.2581 20.6381 44.0997 19.2653C43.6161 18.6919 43.0595 18.1906 42.4459 17.7809L44.3504 15.8763C44.6441 15.5827 44.6441 15.147 44.3504 14.8533ZM33.6439 22.2562C33.0367 22.2562 32.5444 21.7639 32.5444 21.1566C32.5444 20.5493 33.0366 20.0571 33.6439 20.0571C34.2511 20.0571 34.7435 20.5493 34.7435 21.1566C34.7435 21.7639 34.2511 22.2562 33.6439 22.2562ZM40.9809 22.2562C40.3736 22.2562 39.8813 21.7639 39.8813 21.1566C39.8813 20.5493 40.3736 20.0571 40.9809 20.0571C41.5881 20.0571 42.0804 20.5493 42.0804 21.1566C42.0804 21.7639 41.5882 22.2562 40.9809 22.2562Z" fill="white"/>
</g>
<path d="M67.9204 27.7053V17.4598H70.7497C74.3601 17.4598 76.1653 19.1245 76.1653 22.454C76.1653 24.0353 75.6628 25.3071 74.6578 26.2692C73.6575 27.2266 72.3167 27.7053 70.6353 27.7053H67.9204ZM69.1207 18.5458V26.6193H70.6496C71.9928 26.6193 73.0383 26.2597 73.7862 25.5405C74.534 24.8212 74.9079 23.8019 74.9079 22.4825C74.9079 19.8581 73.5123 18.5458 70.7211 18.5458H69.1207ZM81.0809 27.8768C79.9997 27.8768 79.1352 27.5362 78.4874 26.8551C77.8443 26.1692 77.5228 25.2618 77.5228 24.133C77.5228 22.9041 77.8586 21.9443 78.5302 21.2537C79.2018 20.563 80.1092 20.2177 81.2524 20.2177C82.3431 20.2177 83.1933 20.5535 83.803 21.2251C84.4175 21.8967 84.7247 22.8279 84.7247 24.0187C84.7247 25.1856 84.3937 26.1216 83.7316 26.8265C83.0743 27.5267 82.1907 27.8768 81.0809 27.8768ZM81.1666 21.2036C80.4141 21.2036 79.8187 21.4609 79.3805 21.9753C78.9422 22.4849 78.7231 23.1899 78.7231 24.0901C78.7231 24.957 78.9446 25.6405 79.3876 26.1406C79.8306 26.6408 80.4236 26.8908 81.1666 26.8908C81.924 26.8908 82.5051 26.6455 82.9099 26.1549C83.3196 25.6643 83.5244 24.9665 83.5244 24.0615C83.5244 23.147 83.3196 22.4421 82.9099 21.9467C82.5051 21.4513 81.924 21.2036 81.1666 21.2036ZM95.8133 20.3891L93.6199 27.7053H92.4053L90.8977 22.4683C90.8406 22.2682 90.8025 22.042 90.7834 21.7895H90.7548C90.7405 21.961 90.6905 22.1825 90.6048 22.454L88.9686 27.7053H87.7969L85.5821 20.3891H86.8109L88.3256 25.8906C88.3733 26.0573 88.4066 26.2764 88.4257 26.5479H88.4828C88.4971 26.3383 88.54 26.1144 88.6114 25.8763L90.2976 20.3891H91.3693L92.8839 25.9049C92.9316 26.0811 92.9673 26.3002 92.9911 26.5622H93.0483C93.0578 26.3764 93.0983 26.1573 93.1697 25.9049L94.6558 20.3891H95.8133ZM103.244 27.7053H102.072V23.5328C102.072 21.98 101.505 21.2036 100.372 21.2036C99.7857 21.2036 99.2999 21.4251 98.9141 21.8681C98.533 22.3063 98.3425 22.8612 98.3425 23.5328V27.7053H97.1708V20.3891H98.3425V21.6037H98.3711C98.9236 20.6797 99.7238 20.2177 100.772 20.2177C101.572 20.2177 102.184 20.4773 102.608 20.9964C103.032 21.5109 103.244 22.2563 103.244 23.2327V27.7053ZM106.63 27.7053H105.459V16.874H106.63V27.7053ZM112.06 27.8768C110.979 27.8768 110.115 27.5362 109.467 26.8551C108.824 26.1692 108.502 25.2618 108.502 24.133C108.502 22.9041 108.838 21.9443 109.51 21.2537C110.181 20.563 111.089 20.2177 112.232 20.2177C113.323 20.2177 114.173 20.5535 114.782 21.2251C115.397 21.8967 115.704 22.8279 115.704 24.0187C115.704 25.1856 115.373 26.1216 114.711 26.8265C114.054 27.5267 113.17 27.8768 112.06 27.8768ZM112.146 21.2036C111.393 21.2036 110.798 21.4609 110.36 21.9753C109.922 22.4849 109.703 23.1899 109.703 24.0901C109.703 24.957 109.924 25.6405 110.367 26.1406C110.81 26.6408 111.403 26.8908 112.146 26.8908C112.903 26.8908 113.485 26.6455 113.889 26.1549C114.299 25.6643 114.504 24.9665 114.504 24.0615C114.504 23.147 114.299 22.4421 113.889 21.9467C113.485 21.4513 112.903 21.2036 112.146 21.2036ZM122.813 27.7053H121.641V26.5622H121.613C121.103 27.4386 120.353 27.8768 119.362 27.8768C118.633 27.8768 118.062 27.6839 117.647 27.2981C117.238 26.9123 117.033 26.4002 117.033 25.762C117.033 24.3949 117.838 23.5995 119.448 23.3756L121.641 23.0684C121.641 21.8252 121.139 21.2036 120.134 21.2036C119.253 21.2036 118.457 21.5037 117.748 22.1039V20.9036C118.467 20.4463 119.296 20.2177 120.234 20.2177C121.953 20.2177 122.813 21.1274 122.813 22.9469V27.7053ZM121.641 24.0044L119.877 24.2473C119.334 24.3235 118.924 24.4592 118.648 24.6545C118.371 24.8451 118.233 25.1856 118.233 25.6762C118.233 26.0335 118.36 26.3264 118.612 26.555C118.869 26.7789 119.21 26.8908 119.634 26.8908C120.215 26.8908 120.694 26.6884 121.07 26.2835C121.451 25.8739 121.641 25.3571 121.641 24.7331V24.0044ZM131.265 27.7053H130.094V26.4621H130.065C129.522 27.4052 128.684 27.8768 127.55 27.8768C126.631 27.8768 125.895 27.5505 125.342 26.898C124.795 26.2407 124.521 25.3476 124.521 24.2187C124.521 23.0089 124.826 22.0396 125.435 21.3108C126.045 20.5821 126.857 20.2177 127.872 20.2177C128.877 20.2177 129.608 20.613 130.065 21.4037H130.094V16.874H131.265V27.7053ZM130.094 24.3973V23.3185C130.094 22.7278 129.898 22.2277 129.508 21.8181C129.117 21.4085 128.622 21.2036 128.022 21.2036C127.307 21.2036 126.745 21.4656 126.335 21.9896C125.926 22.5135 125.721 23.2375 125.721 24.1615C125.721 25.0046 125.916 25.6715 126.307 26.1621C126.702 26.6479 127.231 26.8908 127.893 26.8908C128.546 26.8908 129.074 26.6551 129.479 26.1835C129.889 25.7119 130.094 25.1166 130.094 24.3973ZM141.268 17.9028C141.039 17.7742 140.78 17.7099 140.489 17.7099C139.67 17.7099 139.26 18.2267 139.26 19.2603V20.3891H140.975V21.3894H139.26V27.7053H138.096V21.3894H136.845V20.3891H138.096V19.2031C138.096 18.4363 138.317 17.8313 138.76 17.3884C139.203 16.9406 139.756 16.7168 140.418 16.7168C140.775 16.7168 141.058 16.7596 141.268 16.8454V17.9028ZM146.055 21.5752C145.85 21.418 145.555 21.3394 145.169 21.3394C144.669 21.3394 144.25 21.5752 143.911 22.0467C143.578 22.5183 143.411 23.1613 143.411 23.9758V27.7053H142.24V20.3891H143.411V21.8967H143.44C143.607 21.3823 143.861 20.9822 144.204 20.6964C144.547 20.4058 144.931 20.2605 145.355 20.2605C145.659 20.2605 145.893 20.2939 146.055 20.3606V21.5752ZM150.385 27.8768C149.303 27.8768 148.439 27.5362 147.791 26.8551C147.148 26.1692 146.826 25.2618 146.826 24.133C146.826 22.9041 147.162 21.9443 147.834 21.2537C148.505 20.563 149.413 20.2177 150.556 20.2177C151.647 20.2177 152.497 20.5535 153.107 21.2251C153.721 21.8967 154.028 22.8279 154.028 24.0187C154.028 25.1856 153.697 26.1216 153.035 26.8265C152.378 27.5267 151.494 27.8768 150.385 27.8768ZM150.47 21.2036C149.718 21.2036 149.122 21.4609 148.684 21.9753C148.246 22.4849 148.027 23.1899 148.027 24.0901C148.027 24.957 148.248 25.6405 148.691 26.1406C149.134 26.6408 149.727 26.8908 150.47 26.8908C151.228 26.8908 151.809 26.6455 152.214 26.1549C152.623 25.6643 152.828 24.9665 152.828 24.0615C152.828 23.147 152.623 22.4421 152.214 21.9467C151.809 21.4513 151.228 21.2036 150.47 21.2036ZM166.289 27.7053H165.117V23.5042C165.117 22.6945 164.991 22.1086 164.738 21.7466C164.491 21.3846 164.071 21.2036 163.481 21.2036C162.981 21.2036 162.554 21.4323 162.202 21.8895C161.854 22.3468 161.68 22.8946 161.68 23.5328V27.7053H160.509V23.3613C160.509 21.9229 159.954 21.2036 158.844 21.2036C158.329 21.2036 157.906 21.4204 157.572 21.8538C157.239 22.2825 157.072 22.8422 157.072 23.5328V27.7053H155.9V20.3891H157.072V21.5466H157.101C157.62 20.6606 158.377 20.2177 159.373 20.2177C159.873 20.2177 160.309 20.3582 160.68 20.6392C161.052 20.9155 161.306 21.2799 161.445 21.7324C161.988 20.7226 162.797 20.2177 163.874 20.2177C165.484 20.2177 166.289 21.2108 166.289 23.197V27.7053Z" fill="white"/>
<path d="M75.8367 47.4907C74.7697 48.0718 73.5813 48.3624 72.2715 48.3624C70.7568 48.3624 69.5303 47.8908 68.592 46.9477C67.6536 46.0046 67.1844 44.7567 67.1844 43.2039C67.1844 41.6178 67.6965 40.3175 68.7206 39.3029C69.7494 38.2836 71.0545 37.7739 72.6359 37.7739C73.7742 37.7739 74.7316 37.9406 75.508 38.2741V40.0245C74.7221 39.5006 73.7862 39.2386 72.7002 39.2386C71.6094 39.2386 70.7139 39.5982 70.0138 40.3175C69.3183 41.0367 68.9706 41.9679 68.9706 43.111C68.9706 44.2875 69.2707 45.214 69.8709 45.8903C70.471 46.5619 71.2855 46.8977 72.3143 46.8977C73.0193 46.8977 73.629 46.762 74.1434 46.4905V44.0541H71.9857V42.6252H75.8367V47.4907ZM82.2669 48.3624C80.7903 48.3624 79.6067 47.8837 78.716 46.9263C77.8301 45.9689 77.3871 44.7234 77.3871 43.1896C77.3871 41.5416 77.8396 40.227 78.7446 39.2457C79.6496 38.2645 80.8785 37.7739 82.4312 37.7739C83.8697 37.7739 85.0272 38.2503 85.9036 39.2029C86.7848 40.1555 87.2253 41.4011 87.2253 42.9396C87.2253 44.6114 86.7752 45.9332 85.875 46.9049C84.9748 47.8766 83.7721 48.3624 82.2669 48.3624ZM82.3455 39.2672C81.4072 39.2672 80.6427 39.6173 80.0521 40.3175C79.4662 41.0176 79.1733 41.9393 79.1733 43.0825C79.1733 44.2208 79.459 45.1377 80.0306 45.8332C80.6022 46.5286 81.35 46.8763 82.2741 46.8763C83.2553 46.8763 84.0293 46.5453 84.5961 45.8832C85.1629 45.2211 85.4463 44.2947 85.4463 43.1039C85.4463 41.8798 85.17 40.9343 84.6175 40.2674C84.0698 39.6006 83.3124 39.2672 82.3455 39.2672ZM93.3269 48.3624C91.8503 48.3624 90.6667 47.8837 89.776 46.9263C88.8901 45.9689 88.4471 44.7234 88.4471 43.1896C88.4471 41.5416 88.8996 40.227 89.8046 39.2457C90.7096 38.2645 91.9385 37.7739 93.4912 37.7739C94.9297 37.7739 96.0872 38.2503 96.9636 39.2029C97.8448 40.1555 98.2853 41.4011 98.2853 42.9396C98.2853 44.6114 97.8352 45.9332 96.935 46.9049C96.0348 47.8766 94.8321 48.3624 93.3269 48.3624ZM93.4055 39.2672C92.4672 39.2672 91.7027 39.6173 91.1121 40.3175C90.5262 41.0176 90.2333 41.9393 90.2333 43.0825C90.2333 44.2208 90.5191 45.1377 91.0906 45.8332C91.6622 46.5286 92.41 46.8763 93.3341 46.8763C94.3153 46.8763 95.0893 46.5453 95.6561 45.8832C96.2229 45.2211 96.5063 44.2947 96.5063 43.1039C96.5063 41.8798 96.2301 40.9343 95.6775 40.2674C95.1298 39.6006 94.3724 39.2672 93.4055 39.2672ZM108.159 47.4907C107.092 48.0718 105.904 48.3624 104.594 48.3624C103.079 48.3624 101.853 47.8908 100.915 46.9477C99.9763 46.0046 99.5071 44.7567 99.5071 43.2039C99.5071 41.6178 100.019 40.3175 101.043 39.3029C102.072 38.2836 103.377 37.7739 104.958 37.7739C106.097 37.7739 107.054 37.9406 107.831 38.2741V40.0245C107.045 39.5006 106.109 39.2386 105.023 39.2386C103.932 39.2386 103.037 39.5982 102.336 40.3175C101.641 41.0367 101.293 41.9679 101.293 43.111C101.293 44.2875 101.593 45.214 102.193 45.8903C102.794 46.5619 103.608 46.8977 104.637 46.8977C105.342 46.8977 105.952 46.762 106.466 46.4905V44.0541H104.308V42.6252H108.159V47.4907ZM116.04 48.1909H110.367V37.9454H112.067V46.7548H116.04V48.1909ZM123.278 48.1909H117.526V37.9454H123.049V39.3886H119.226V42.2894H122.749V43.7255H119.226V46.7548H123.278V48.1909ZM130.822 44.4757V48.1909H129.129V37.9454H132.237C133.413 37.9454 134.326 38.2193 134.973 38.7671C135.621 39.3148 135.945 40.0864 135.945 41.0819C135.945 42.0774 135.607 42.8919 134.931 43.5254C134.254 44.1589 133.34 44.4757 132.187 44.4757H130.822ZM130.822 39.3458V43.0896H131.923C132.651 43.0896 133.206 42.9205 133.587 42.5823C133.968 42.2441 134.159 41.7678 134.159 41.1534C134.159 39.9483 133.459 39.3458 132.058 39.3458H130.822ZM143.361 48.1909H137.688V37.9454H139.389V46.7548H143.361V48.1909ZM153.65 48.1909H151.785L150.863 45.5831H146.834L145.948 48.1909H144.09L147.927 37.9454H149.842L153.65 48.1909ZM150.413 44.197L148.991 40.1103C148.948 39.9769 148.903 39.7625 148.856 39.4672H148.827C148.784 39.7387 148.736 39.9531 148.684 40.1103L147.277 44.197H150.413ZM161.087 37.9454L157.729 44.4685V48.1909H156.029V44.5043L152.757 37.9454H154.693L156.708 42.3394C156.731 42.3918 156.803 42.5895 156.922 42.9324H156.943C156.986 42.78 157.065 42.5823 157.179 42.3394L159.287 37.9454H161.087Z" fill="white"/>
<defs>
<clipPath id="clip0_1501_8770">
<rect width="35.1176" height="35.1176" fill="white" transform="translate(19.7537 14.6318)"/>
</clipPath>
</defs>
</svg>
