<svg width="248" height="85" viewBox="0 0 248 85" fill="none" xmlns="http://www.w3.org/2000/svg">
<rect x="1.14755" y="0.965909" width="245.341" height="83.0682" rx="29.9432" fill="#FAFCFF"/>
<g clip-path="url(#clip0_1601_9024)">
<path d="M54.2827 65.6816C55.8329 65.6816 57.1848 64.3298 57.1848 62.7796V56.002H59.1225C60.2853 56.002 61.0603 55.2268 61.0603 54.0643V34.7066H37.8257V54.0644C37.8257 55.2271 38.6008 56.0022 39.7634 56.0022H41.7014V62.7798C41.7014 64.33 43.0529 65.6818 44.6034 65.6818C46.1534 65.6818 47.5052 64.33 47.5052 62.7798V56.0022H51.3808V62.7798C51.3807 64.3298 52.7325 65.6816 54.2827 65.6816Z" fill="#2CC9FA"/>
<path d="M65.9001 54.0645C67.4503 54.0645 68.8019 52.7128 68.8019 51.1624V37.6074C68.8019 36.0654 67.4504 34.7066 65.9001 34.7066C64.3497 34.7066 62.998 36.0655 62.998 37.6074V51.1624C62.998 52.7126 64.3497 54.0645 65.9001 54.0645Z" fill="#2CC9FA"/>
<path d="M32.9858 54.0645C34.5361 54.0645 35.8878 52.7128 35.8878 51.1624V37.6074C35.8878 36.0654 34.5363 34.7066 32.9858 34.7066C31.4356 34.7066 30.084 36.0655 30.084 37.6074V51.1624C30.0841 52.7126 31.4356 54.0645 32.9858 54.0645Z" fill="#2CC9FA"/>
<path d="M58.7347 19.6106C58.3473 19.2207 57.7706 19.2207 57.3832 19.6106L54.7842 22.2008L54.6643 22.3206C53.1233 21.5489 51.3954 21.1635 49.4713 21.1597C49.4619 21.1597 49.4526 21.1595 49.4432 21.1595H49.4429C49.4331 21.1595 49.4241 21.1597 49.4145 21.1597C47.4905 21.1635 45.7627 21.5489 44.2218 22.3206L44.1016 22.2008L41.5026 19.6106C41.115 19.2207 40.5385 19.2207 40.1511 19.6106C39.7634 19.9982 39.7634 20.5736 40.1511 20.961L42.6651 23.4755C41.855 24.0163 41.1205 24.6782 40.4817 25.4352C38.9524 27.2479 37.9769 29.6071 37.8428 32.1633C37.8415 32.1899 37.8389 32.2162 37.8377 32.2428C37.8295 32.4168 37.8257 32.5918 37.8257 32.7675H61.0602C61.0602 32.5919 61.056 32.4169 61.0481 32.2428C61.0469 32.2162 61.0443 32.1899 61.0427 32.1633C60.9089 29.6071 59.9332 27.2478 58.4038 25.4354C57.7653 24.6784 57.0305 24.0165 56.2204 23.4757L58.7347 20.9612C59.1224 20.5736 59.1224 19.9983 58.7347 19.6106ZM44.5996 29.3841C43.798 29.3841 43.148 28.7342 43.148 27.9324C43.148 27.1307 43.7979 26.4808 44.5996 26.4808C45.4013 26.4808 46.0513 27.1307 46.0513 27.9324C46.0513 28.7342 45.4013 29.3841 44.5996 29.3841ZM54.2861 29.3841C53.4845 29.3841 52.8345 28.7342 52.8345 27.9324C52.8345 27.1307 53.4844 26.4808 54.2861 26.4808C55.0878 26.4808 55.7378 27.1307 55.7378 27.9324C55.7378 28.7342 55.0879 29.3841 54.2861 29.3841Z" fill="#2CC9FA"/>
</g>
<path d="M89.8527 37.4545H93.4371C95.6538 37.4545 97.4272 36.8225 98.7477 35.5586C100.068 34.2946 100.738 32.6156 100.738 30.5215C100.738 26.1258 98.3516 23.928 93.588 23.928H89.8527V37.4545ZM91.4374 25.3618H93.5503C97.2291 25.3618 99.0779 27.0974 99.0779 30.5592C99.0779 32.3043 98.5779 33.6531 97.5969 34.5964C96.6065 35.5491 95.2293 36.0208 93.456 36.0208H91.4374V25.3618ZM107.228 37.6809C108.69 37.6809 109.859 37.2187 110.727 36.2943C111.595 35.3699 112.038 34.1342 112.038 32.5873C112.038 31.0214 111.633 29.7857 110.822 28.8991C110.01 28.0124 108.888 27.5691 107.454 27.5691C105.945 27.5691 104.747 28.0313 103.86 28.9368C102.974 29.8518 102.53 31.1158 102.53 32.7382C102.53 34.2285 102.955 35.4265 103.804 36.332C104.653 37.2376 105.794 37.6809 107.228 37.6809ZM107.341 28.8708C108.341 28.8708 109.105 29.2009 109.643 29.8518C110.18 30.5121 110.454 31.4365 110.454 32.6438C110.454 33.8418 110.18 34.7662 109.643 35.4076C109.105 36.0585 108.341 36.3792 107.341 36.3792C106.36 36.3792 105.577 36.0491 104.992 35.3888C104.407 34.7285 104.115 33.8324 104.115 32.6816C104.115 31.4931 104.398 30.5687 104.983 29.8895C105.558 29.2103 106.341 28.8708 107.341 28.8708ZM126.678 27.7954H125.15L123.188 35.0775C123.094 35.4171 123.037 35.7 123.028 35.9453H122.952C122.914 35.6057 122.867 35.3133 122.811 35.0775L120.811 27.7954H119.396L117.17 35.0398C117.075 35.3605 117.019 35.6529 117 35.9264H116.925C116.896 35.568 116.849 35.285 116.793 35.0586L114.793 27.7954H113.17L116.094 37.4545H117.641L119.802 30.5215C119.915 30.163 119.981 29.8706 120 29.6442H120.037C120.056 29.9838 120.113 30.2762 120.188 30.5404L122.179 37.4545H123.782L126.678 27.7954ZM136.488 37.4545V31.5497C136.488 30.2668 136.205 29.2764 135.648 28.5972C135.083 27.9181 134.281 27.5691 133.224 27.5691C131.838 27.5691 130.781 28.1822 130.055 29.399H130.017V27.7954H128.47V37.4545H130.017V31.9458C130.017 31.0592 130.262 30.3328 130.772 29.748C131.281 29.1632 131.923 28.8708 132.696 28.8708C134.186 28.8708 134.941 29.8989 134.941 31.9458V37.4545H136.488ZM140.959 37.4545V23.1545H139.412V37.4545H140.959ZM148.128 37.6809C149.59 37.6809 150.76 37.2187 151.627 36.2943C152.495 35.3699 152.939 34.1342 152.939 32.5873C152.939 31.0214 152.533 29.7857 151.722 28.8991C150.911 28.0124 149.788 27.5691 148.354 27.5691C146.845 27.5691 145.647 28.0313 144.76 28.9368C143.874 29.8518 143.43 31.1158 143.43 32.7382C143.43 34.2285 143.855 35.4265 144.704 36.332C145.553 37.2376 146.694 37.6809 148.128 37.6809ZM148.241 28.8708C149.241 28.8708 150.005 29.2009 150.543 29.8518C151.08 30.5121 151.354 31.4365 151.354 32.6438C151.354 33.8418 151.08 34.7662 150.543 35.4076C150.005 36.0585 149.241 36.3792 148.241 36.3792C147.26 36.3792 146.477 36.0491 145.892 35.3888C145.308 34.7285 145.015 33.8324 145.015 32.6816C145.015 31.4931 145.298 30.5687 145.883 29.8895C146.458 29.2103 147.241 28.8708 148.241 28.8708ZM162.06 37.4545V31.1723C162.06 28.7764 160.919 27.5691 158.655 27.5691C157.41 27.5691 156.316 27.8709 155.372 28.4746V30.0593C156.306 29.2669 157.353 28.8708 158.523 28.8708C159.843 28.8708 160.513 29.6914 160.513 31.3327L157.617 31.7383C155.485 32.0402 154.429 33.0872 154.429 34.8888C154.429 35.7378 154.693 36.4075 155.24 36.9169C155.787 37.4262 156.542 37.6809 157.504 37.6809C158.806 37.6809 159.796 37.1055 160.475 35.9453H160.513V37.4545H162.06ZM160.513 32.5684V33.5305C160.513 34.3606 160.258 35.0398 159.758 35.5774C159.259 36.1151 158.627 36.3792 157.863 36.3792C157.297 36.3792 156.853 36.2377 156.514 35.9359C156.174 35.634 156.014 35.2473 156.014 34.7756C156.014 34.1342 156.193 33.6814 156.561 33.4268C156.919 33.1721 157.466 32.9929 158.183 32.8891L160.513 32.5684ZM173.219 37.4545V23.1545H171.672V29.1349H171.634C171.031 28.0973 170.059 27.5691 168.738 27.5691C167.399 27.5691 166.324 28.0501 165.522 29.0123C164.711 29.9744 164.314 31.2572 164.314 32.8514C164.314 34.3417 164.673 35.5208 165.399 36.3886C166.126 37.2564 167.097 37.6809 168.314 37.6809C169.804 37.6809 170.917 37.0584 171.634 35.8132H171.672V37.4545H173.219ZM171.672 33.0872C171.672 34.0399 171.398 34.8228 170.861 35.4454C170.323 36.0679 169.625 36.3792 168.767 36.3792C167.889 36.3792 167.191 36.0585 166.673 35.4171C166.154 34.7756 165.899 33.889 165.899 32.7759C165.899 31.5591 166.163 30.6064 166.71 29.9084C167.248 29.2198 167.993 28.8708 168.937 28.8708C169.729 28.8708 170.38 29.1443 170.899 29.682C171.408 30.2291 171.672 30.8894 171.672 31.6628V33.0872ZM186.425 24.5129V23.1168C186.142 23.0036 185.774 22.947 185.302 22.947C184.425 22.947 183.699 23.2489 183.114 23.8337C182.529 24.4185 182.237 25.2203 182.237 26.2296V27.7954H180.586V29.116H182.237V37.4545H183.774V29.116H186.038V27.7954H183.774V26.3051C183.774 24.9468 184.312 24.2582 185.397 24.2582C185.774 24.2582 186.123 24.3431 186.425 24.5129ZM192.745 29.3613V27.7577C192.528 27.6728 192.216 27.6256 191.82 27.6256C191.254 27.6256 190.754 27.8237 190.302 28.201C189.849 28.5784 189.509 29.1066 189.292 29.7857H189.255V27.7954H187.708V37.4545H189.255V32.5307C189.255 31.4553 189.472 30.6064 189.915 29.9838C190.358 29.3613 190.915 29.05 191.575 29.05C192.084 29.05 192.471 29.1537 192.745 29.3613ZM198.197 37.6809C199.659 37.6809 200.828 37.2187 201.696 36.2943C202.564 35.3699 203.007 34.1342 203.007 32.5873C203.007 31.0214 202.602 29.7857 201.791 28.8991C200.979 28.0124 199.857 27.5691 198.423 27.5691C196.914 27.5691 195.716 28.0313 194.829 28.9368C193.943 29.8518 193.499 31.1158 193.499 32.7382C193.499 34.2285 193.924 35.4265 194.773 36.332C195.622 37.2376 196.763 37.6809 198.197 37.6809ZM198.31 28.8708C199.31 28.8708 200.074 29.2009 200.612 29.8518C201.149 30.5121 201.423 31.4365 201.423 32.6438C201.423 33.8418 201.149 34.7662 200.612 35.4076C200.074 36.0585 199.31 36.3792 198.31 36.3792C197.329 36.3792 196.546 36.0491 195.961 35.3888C195.376 34.7285 195.084 33.8324 195.084 32.6816C195.084 31.4931 195.367 30.5687 195.952 29.8895C196.527 29.2103 197.31 28.8708 198.31 28.8708ZM219.194 37.4545V31.5025C219.194 28.8802 218.128 27.5691 216.006 27.5691C214.581 27.5691 213.515 28.2388 212.799 29.5688C212.61 28.9745 212.28 28.4935 211.789 28.1256C211.299 27.7577 210.723 27.5691 210.063 27.5691C208.743 27.5691 207.743 28.1539 207.064 29.3235H207.026V27.7954H205.479V37.4545H207.026V31.9458C207.026 31.0403 207.243 30.2951 207.686 29.7291C208.12 29.1632 208.686 28.8708 209.365 28.8708C210.827 28.8708 211.563 29.8235 211.563 31.7194V37.4545H213.11V31.9458C213.11 31.1063 213.336 30.38 213.798 29.7763C214.261 29.1726 214.827 28.8708 215.487 28.8708C216.26 28.8708 216.817 29.116 217.147 29.5877C217.477 30.0687 217.647 30.8422 217.647 31.9081V37.4545H219.194Z" fill="#111111"/>
<path d="M100.304 63.5756V57.1519H95.2199V59.0385H98.0686V62.255C97.3894 62.6135 96.5782 62.7927 95.6538 62.7927C94.2955 62.7927 93.2202 62.3493 92.4278 61.4627C91.6355 60.576 91.2393 59.3497 91.2393 57.7933C91.2393 56.2841 91.6921 55.0579 92.6165 54.1052C93.5409 53.1619 94.72 52.6808 96.1632 52.6808C97.5969 52.6808 98.8326 53.0298 99.8702 53.7184V51.4074C98.8421 50.9735 97.5781 50.7471 96.0783 50.7471C93.9842 50.7471 92.2675 51.4263 90.9092 52.7657C89.5508 54.1052 88.8811 55.8219 88.8811 57.916C88.8811 59.9723 89.4943 61.6136 90.7394 62.8587C91.9751 64.1038 93.5975 64.7264 95.5972 64.7264C97.3234 64.7264 98.8892 64.3491 100.304 63.5756ZM108.794 64.7264C110.774 64.7264 112.369 64.085 113.557 62.8021C114.746 61.5193 115.34 59.7742 115.34 57.567C115.34 55.5389 114.755 53.8976 113.595 52.6337C112.435 51.3791 110.906 50.7471 109.011 50.7471C106.954 50.7471 105.332 51.398 104.143 52.6903C102.945 53.992 102.351 55.7276 102.351 57.8971C102.351 59.9251 102.936 61.5664 104.106 62.8304C105.275 64.0944 106.841 64.7264 108.794 64.7264ZM108.897 52.7186C110.171 52.7186 111.171 53.1619 111.897 54.0391C112.623 54.9258 112.991 56.1709 112.991 57.7839C112.991 59.3592 112.614 60.5854 111.869 61.4532C111.114 62.3305 110.095 62.7644 108.803 62.7644C107.577 62.7644 106.596 62.3116 105.841 61.3872C105.087 60.4722 104.709 59.2648 104.709 57.7556C104.709 56.2464 105.096 55.0296 105.869 54.1052C106.643 53.1808 107.652 52.7186 108.897 52.7186ZM123.395 64.7264C125.376 64.7264 126.97 64.085 128.159 62.8021C129.347 61.5193 129.942 59.7742 129.942 57.567C129.942 55.5389 129.357 53.8976 128.197 52.6337C127.036 51.3791 125.508 50.7471 123.612 50.7471C121.556 50.7471 119.934 51.398 118.745 52.6903C117.547 53.992 116.953 55.7276 116.953 57.8971C116.953 59.9251 117.538 61.5664 118.707 62.8304C119.877 64.0944 121.443 64.7264 123.395 64.7264ZM123.499 52.7186C124.773 52.7186 125.772 53.1619 126.499 54.0391C127.225 54.9258 127.593 56.1709 127.593 57.7839C127.593 59.3592 127.216 60.5854 126.47 61.4532C125.716 62.3305 124.697 62.7644 123.405 62.7644C122.179 62.7644 121.198 62.3116 120.443 61.3872C119.688 60.4722 119.311 59.2648 119.311 57.7556C119.311 56.2464 119.698 55.0296 120.471 54.1052C121.245 53.1808 122.254 52.7186 123.499 52.7186ZM142.978 63.5756V57.1519H137.893V59.0385H140.742V62.255C140.063 62.6135 139.252 62.7927 138.327 62.7927C136.969 62.7927 135.894 62.3493 135.101 61.4627C134.309 60.576 133.913 59.3497 133.913 57.7933C133.913 56.2841 134.366 55.0579 135.29 54.1052C136.214 53.1619 137.394 52.6808 138.837 52.6808C140.271 52.6808 141.506 53.0298 142.544 53.7184V51.4074C141.516 50.9735 140.252 50.7471 138.752 50.7471C136.658 50.7471 134.941 51.4263 133.583 52.7657C132.224 54.1052 131.555 55.8219 131.555 57.916C131.555 59.9723 132.168 61.6136 133.413 62.8587C134.649 64.1038 136.271 64.7264 138.271 64.7264C139.997 64.7264 141.563 64.3491 142.978 63.5756ZM153.382 64.5V62.604H148.137V50.9735H145.892V64.5H153.382ZM162.937 64.5V62.604H157.589V58.6046H162.239V56.7086H157.589V52.8789H162.635V50.9735H155.344V64.5H162.937ZM172.898 59.595H174.7C176.219 59.595 177.426 59.18 178.322 58.3404C179.209 57.5104 179.661 56.435 179.661 55.1145C179.661 53.8033 179.228 52.7846 178.379 52.0583C177.52 51.3414 176.313 50.9735 174.766 50.9735H170.663V64.5H172.898V59.595ZM172.898 52.8223H174.53C176.379 52.8223 177.303 53.6241 177.303 55.2088C177.303 56.02 177.049 56.652 176.549 57.0953C176.039 57.5481 175.313 57.765 174.351 57.765H172.898V52.8223ZM189.453 64.5V62.604H184.208V50.9735H181.963V64.5H189.453ZM203.036 64.5L198.008 50.9735H195.48L190.415 64.5H192.867L194.037 61.0571H199.357L200.574 64.5H203.036ZM198.763 59.2271H194.622L196.48 53.8316C196.546 53.6241 196.612 53.3411 196.669 52.9827H196.706C196.763 53.3788 196.829 53.6618 196.886 53.8316L198.763 59.2271ZM212.855 50.9735H210.478L207.695 56.7746C207.545 57.0953 207.441 57.3594 207.384 57.5575H207.356C207.196 57.1048 207.101 56.8501 207.073 56.7746L204.413 50.9735H201.857L206.177 59.6327V64.5H208.422V59.5856L212.855 50.9735Z" fill="#111111"/>
<rect x="1.14755" y="0.965909" width="245.341" height="83.0682" rx="29.9432" stroke="#2CC9FA" stroke-width="1.93182"/>
<defs>
<clipPath id="clip0_1601_9024">
<rect width="46.3636" height="46.3636" fill="white" transform="translate(26.2612 19.3182)"/>
</clipPath>
</defs>
</svg>
