<svg width="32" height="32" viewBox="0 0 32 32" fill="none" xmlns="http://www.w3.org/2000/svg">
<path fill-rule="evenodd" clip-rule="evenodd" d="M21.7812 16L21.7812 16L21.1901 19.8542H18.0833V29.1714C24.4575 28.1711 29.3333 22.6551 29.3333 16C29.3333 8.63623 23.3638 2.6667 16 2.6667C8.63616 2.6667 2.66663 8.63623 2.66663 16C2.66663 22.6551 7.54243 28.1711 13.9166 29.1714L13.9166 29.1714L13.9166 19.8542H10.5312L10.5312 19.8542L10.5312 16L10.5312 16H13.9166L13.9166 13.0625C13.9166 13.0625 13.9166 13.0625 13.9166 13.0625C13.9166 10.9781 14.6911 9.47574 16.013 8.64027C16.8104 8.13631 17.8069 7.87502 18.9528 7.87502C20.4116 7.87502 21.9375 8.13543 21.9375 8.13543L21.9375 8.13545V11.4167H20.2562C19.635 11.4167 19.1742 11.5612 18.8408 11.7975C18.2851 12.1913 18.0833 12.8399 18.0833 13.4989C18.0833 13.4989 18.0833 13.4989 18.0833 13.4989L18.0833 16H21.7812Z" fill="white"/>
</svg>
