<svg width="186" height="64" viewBox="0 0 186 64" fill="none" xmlns="http://www.w3.org/2000/svg">
<rect width="186" height="64" rx="23.4118" fill="#111111"/>
<g clip-path="url(#clip0_1501_8765)">
<path d="M46.9076 33.2759C46.8678 28.8353 50.5344 26.7034 50.7003 26.5995C48.637 23.5808 45.4259 23.1672 44.2804 23.1186C41.5492 22.8421 38.9485 24.7263 37.5641 24.7263C36.1797 24.7263 34.039 23.1584 31.7744 23.2026C28.7934 23.2469 26.0489 24.9342 24.5141 27.6013C21.4203 32.9685 23.7246 40.9233 26.7367 45.2799C28.2117 47.4095 29.9676 49.809 32.2764 49.7205C34.5012 49.6321 35.3416 48.2831 38.0263 48.2831C40.711 48.2831 41.4674 49.7205 43.8182 49.6785C46.2088 49.6321 47.7259 47.5024 49.1899 45.3661C50.8794 42.8937 51.5783 40.5009 51.6181 40.3748C51.565 40.3527 46.9563 38.5857 46.9076 33.2759Z" fill="#FAFCFF"/>
<path d="M42.4912 20.2367C43.7163 18.7528 44.5434 16.6894 44.3156 14.6328C42.5507 14.7037 40.4146 15.8093 39.1473 17.2933C38.0129 18.6047 37.0177 20.7056 37.2874 22.7203C39.2557 22.8729 41.2658 21.7184 42.4912 20.2367Z" fill="#FAFCFF"/>
</g>
<path d="M67.9204 27.7063V17.4608H70.7497C74.3601 17.4608 76.1653 19.1255 76.1653 22.4549C76.1653 24.0363 75.6628 25.3081 74.6578 26.2702C73.6575 27.2276 72.3167 27.7063 70.6353 27.7063H67.9204ZM69.1207 18.5468V26.6203H70.6496C71.9928 26.6203 73.0383 26.2607 73.7862 25.5415C74.534 24.8222 74.9079 23.8029 74.9079 22.4835C74.9079 19.859 73.5123 18.5468 70.7211 18.5468H69.1207ZM81.0809 27.8778C79.9997 27.8778 79.1352 27.5372 78.4874 26.8561C77.8443 26.1702 77.5228 25.2628 77.5228 24.1339C77.5228 22.9051 77.8586 21.9453 78.5302 21.2546C79.2018 20.564 80.1092 20.2186 81.2524 20.2186C82.3431 20.2186 83.1933 20.5545 83.803 21.2261C84.4175 21.8977 84.7247 22.8288 84.7247 24.0196C84.7247 25.1866 84.3937 26.1226 83.7316 26.8275C83.0743 27.5277 82.1907 27.8778 81.0809 27.8778ZM81.1666 21.2046C80.4141 21.2046 79.8187 21.4618 79.3805 21.9762C78.9422 22.4859 78.7231 23.1908 78.7231 24.0911C78.7231 24.958 78.9446 25.6415 79.3876 26.1416C79.8306 26.6417 80.4236 26.8918 81.1666 26.8918C81.924 26.8918 82.5051 26.6465 82.9099 26.1559C83.3196 25.6653 83.5244 24.9675 83.5244 24.0625C83.5244 23.148 83.3196 22.443 82.9099 21.9477C82.5051 21.4523 81.924 21.2046 81.1666 21.2046ZM95.8133 20.3901L93.6199 27.7063H92.4053L90.8977 22.4692C90.8406 22.2692 90.8025 22.0429 90.7834 21.7905H90.7548C90.7405 21.962 90.6905 22.1834 90.6048 22.4549L88.9686 27.7063H87.7969L85.5821 20.3901H86.8109L88.3256 25.8915C88.3733 26.0583 88.4066 26.2774 88.4257 26.5489H88.4828C88.4971 26.3393 88.54 26.1154 88.6114 25.8773L90.2976 20.3901H91.3693L92.8839 25.9058C92.9316 26.0821 92.9673 26.3012 92.9911 26.5631H93.0483C93.0578 26.3774 93.0983 26.1583 93.1697 25.9058L94.6558 20.3901H95.8133ZM103.244 27.7063H102.072V23.5338C102.072 21.981 101.505 21.2046 100.372 21.2046C99.7857 21.2046 99.2999 21.4261 98.9141 21.8691C98.533 22.3073 98.3425 22.8622 98.3425 23.5338V27.7063H97.1708V20.3901H98.3425V21.6047H98.3711C98.9236 20.6807 99.7238 20.2186 100.772 20.2186C101.572 20.2186 102.184 20.4782 102.608 20.9974C103.032 21.5118 103.244 22.2573 103.244 23.2337V27.7063ZM106.63 27.7063H105.459V16.8749H106.63V27.7063ZM112.06 27.8778C110.979 27.8778 110.115 27.5372 109.467 26.8561C108.824 26.1702 108.502 25.2628 108.502 24.1339C108.502 22.9051 108.838 21.9453 109.51 21.2546C110.181 20.564 111.089 20.2186 112.232 20.2186C113.323 20.2186 114.173 20.5545 114.782 21.2261C115.397 21.8977 115.704 22.8288 115.704 24.0196C115.704 25.1866 115.373 26.1226 114.711 26.8275C114.054 27.5277 113.17 27.8778 112.06 27.8778ZM112.146 21.2046C111.393 21.2046 110.798 21.4618 110.36 21.9762C109.922 22.4859 109.703 23.1908 109.703 24.0911C109.703 24.958 109.924 25.6415 110.367 26.1416C110.81 26.6417 111.403 26.8918 112.146 26.8918C112.903 26.8918 113.485 26.6465 113.889 26.1559C114.299 25.6653 114.504 24.9675 114.504 24.0625C114.504 23.148 114.299 22.443 113.889 21.9477C113.485 21.4523 112.903 21.2046 112.146 21.2046ZM122.813 27.7063H121.641V26.5631H121.613C121.103 27.4396 120.353 27.8778 119.362 27.8778C118.633 27.8778 118.062 27.6849 117.647 27.2991C117.238 26.9132 117.033 26.4012 117.033 25.7629C117.033 24.3959 117.838 23.6005 119.448 23.3766L121.641 23.0694C121.641 21.8262 121.139 21.2046 120.134 21.2046C119.253 21.2046 118.457 21.5047 117.748 22.1049V20.9045C118.467 20.4473 119.296 20.2186 120.234 20.2186C121.953 20.2186 122.813 21.1284 122.813 22.9479V27.7063ZM121.641 24.0053L119.877 24.2483C119.334 24.3245 118.924 24.4602 118.648 24.6555C118.371 24.846 118.233 25.1866 118.233 25.6772C118.233 26.0344 118.36 26.3274 118.612 26.556C118.869 26.7799 119.21 26.8918 119.634 26.8918C120.215 26.8918 120.694 26.6894 121.07 26.2845C121.451 25.8749 121.641 25.3581 121.641 24.7341V24.0053ZM131.265 27.7063H130.094V26.4631H130.065C129.522 27.4062 128.684 27.8778 127.55 27.8778C126.631 27.8778 125.895 27.5515 125.342 26.8989C124.795 26.2416 124.521 25.3485 124.521 24.2197C124.521 23.0098 124.826 22.0405 125.435 21.3118C126.045 20.583 126.857 20.2186 127.872 20.2186C128.877 20.2186 129.608 20.614 130.065 21.4047H130.094V16.8749H131.265V27.7063ZM130.094 24.3983V23.3195C130.094 22.7288 129.898 22.2287 129.508 21.8191C129.117 21.4094 128.622 21.2046 128.022 21.2046C127.307 21.2046 126.745 21.4666 126.335 21.9905C125.926 22.5145 125.721 23.2385 125.721 24.1625C125.721 25.0056 125.916 25.6724 126.307 26.163C126.702 26.6489 127.231 26.8918 127.893 26.8918C128.546 26.8918 129.074 26.656 129.479 26.1845C129.889 25.7129 130.094 25.1175 130.094 24.3983ZM141.268 17.9038C141.039 17.7752 140.78 17.7109 140.489 17.7109C139.67 17.7109 139.26 18.2277 139.26 19.2613V20.3901H140.975V21.3904H139.26V27.7063H138.096V21.3904H136.845V20.3901H138.096V19.2041C138.096 18.4372 138.317 17.8323 138.76 17.3893C139.203 16.9416 139.756 16.7177 140.418 16.7177C140.775 16.7177 141.058 16.7606 141.268 16.8463V17.9038ZM146.055 21.5761C145.85 21.419 145.555 21.3404 145.169 21.3404C144.669 21.3404 144.25 21.5761 143.911 22.0477C143.578 22.5192 143.411 23.1623 143.411 23.9768V27.7063H142.24V20.3901H143.411V21.8977H143.44C143.607 21.3832 143.861 20.9831 144.204 20.6973C144.547 20.4068 144.931 20.2615 145.355 20.2615C145.659 20.2615 145.893 20.2949 146.055 20.3615V21.5761ZM150.385 27.8778C149.303 27.8778 148.439 27.5372 147.791 26.8561C147.148 26.1702 146.826 25.2628 146.826 24.1339C146.826 22.9051 147.162 21.9453 147.834 21.2546C148.505 20.564 149.413 20.2186 150.556 20.2186C151.647 20.2186 152.497 20.5545 153.107 21.2261C153.721 21.8977 154.028 22.8288 154.028 24.0196C154.028 25.1866 153.697 26.1226 153.035 26.8275C152.378 27.5277 151.494 27.8778 150.385 27.8778ZM150.47 21.2046C149.718 21.2046 149.122 21.4618 148.684 21.9762C148.246 22.4859 148.027 23.1908 148.027 24.0911C148.027 24.958 148.248 25.6415 148.691 26.1416C149.134 26.6417 149.727 26.8918 150.47 26.8918C151.228 26.8918 151.809 26.6465 152.214 26.1559C152.623 25.6653 152.828 24.9675 152.828 24.0625C152.828 23.148 152.623 22.443 152.214 21.9477C151.809 21.4523 151.228 21.2046 150.47 21.2046ZM166.289 27.7063H165.117V23.5052C165.117 22.6955 164.991 22.1096 164.738 21.7476C164.491 21.3856 164.071 21.2046 163.481 21.2046C162.981 21.2046 162.554 21.4332 162.202 21.8905C161.854 22.3478 161.68 22.8955 161.68 23.5338V27.7063H160.509V23.3623C160.509 21.9239 159.954 21.2046 158.844 21.2046C158.329 21.2046 157.906 21.4213 157.572 21.8548C157.239 22.2835 157.072 22.8431 157.072 23.5338V27.7063H155.9V20.3901H157.072V21.5476H157.101C157.62 20.6616 158.377 20.2186 159.373 20.2186C159.873 20.2186 160.309 20.3592 160.68 20.6402C161.052 20.9164 161.306 21.2808 161.445 21.7333C161.988 20.7235 162.797 20.2186 163.874 20.2186C165.484 20.2186 166.289 21.2118 166.289 23.198V27.7063Z" fill="white"/>
<path d="M76.2582 48.1919H74.3935L73.4718 45.5841H69.4422L68.5562 48.1919H66.6986L70.5353 37.9464H72.4501L76.2582 48.1919ZM73.0217 44.198L71.5999 40.1112C71.557 39.9779 71.5118 39.7635 71.4641 39.4682H71.4355C71.3927 39.7397 71.345 39.9541 71.2927 40.1112L69.8851 44.198H73.0217ZM79.3662 44.4766V48.1919H77.6729V37.9464H80.7808C81.9573 37.9464 82.8695 38.2203 83.5172 38.768C84.165 39.3158 84.4889 40.0874 84.4889 41.0829C84.4889 42.0784 84.1507 42.8929 83.4744 43.5264C82.798 44.1599 81.8835 44.4766 80.7308 44.4766H79.3662ZM79.3662 39.3468V43.0906H80.4665C81.1952 43.0906 81.7501 42.9215 82.1312 42.5833C82.5122 42.2451 82.7027 41.7688 82.7027 41.1544C82.7027 39.9493 82.0026 39.3468 80.6022 39.3468H79.3662ZM87.9255 44.4766V48.1919H86.2322V37.9464H89.3402C90.5167 37.9464 91.4288 38.2203 92.0766 38.768C92.7244 39.3158 93.0483 40.0874 93.0483 41.0829C93.0483 42.0784 92.7101 42.8929 92.0337 43.5264C91.3574 44.1599 90.4428 44.4766 89.2902 44.4766H87.9255ZM87.9255 39.3468V43.0906H89.0258C89.7546 43.0906 90.3095 42.9215 90.6905 42.5833C91.0716 42.2451 91.2621 41.7688 91.2621 41.1544C91.2621 39.9493 90.5619 39.3468 89.1616 39.3468H87.9255ZM98.3496 47.7846V46.0342C98.5068 46.1771 98.6926 46.3057 98.9069 46.42C99.126 46.5343 99.357 46.632 99.6 46.7129C99.8429 46.7892 100.086 46.8487 100.329 46.8916C100.572 46.9344 100.796 46.9559 101 46.9559C101.715 46.9559 102.246 46.8368 102.594 46.5986C102.946 46.3605 103.122 46.0151 103.122 45.5626C103.122 45.3197 103.063 45.1101 102.944 44.9339C102.829 44.7529 102.667 44.5886 102.458 44.4409C102.248 44.2933 102.001 44.1528 101.715 44.0194C101.434 43.8813 101.131 43.7384 100.807 43.5907C100.46 43.4049 100.136 43.2168 99.8357 43.0263C99.5357 42.8357 99.2737 42.6262 99.0498 42.3975C98.8307 42.1641 98.6569 41.9022 98.5283 41.6116C98.4044 41.3211 98.3425 40.9805 98.3425 40.5899C98.3425 40.1089 98.4497 39.6921 98.664 39.3396C98.8831 38.9824 99.1689 38.6894 99.5214 38.4608C99.8786 38.2274 100.283 38.0559 100.736 37.9464C101.188 37.8321 101.65 37.7749 102.122 37.7749C103.194 37.7749 103.975 37.8964 104.466 38.1393V39.8183C103.884 39.3991 103.137 39.1896 102.222 39.1896C101.97 39.1896 101.717 39.2134 101.465 39.261C101.217 39.3086 100.993 39.3872 100.793 39.4968C100.598 39.6063 100.438 39.7469 100.314 39.9183C100.191 40.0898 100.129 40.297 100.129 40.5399C100.129 40.7685 100.176 40.9662 100.272 41.1329C100.367 41.2996 100.505 41.4521 100.686 41.5902C100.872 41.7283 101.096 41.8641 101.358 41.9974C101.624 42.126 101.932 42.2666 102.279 42.419C102.636 42.6047 102.972 42.8 103.287 43.0048C103.606 43.2097 103.884 43.4359 104.123 43.6836C104.365 43.9313 104.556 44.2075 104.694 44.5124C104.837 44.8124 104.908 45.1554 104.908 45.5412C104.908 46.0604 104.804 46.4986 104.594 46.8558C104.385 47.2131 104.101 47.5036 103.744 47.7275C103.391 47.9514 102.984 48.1133 102.522 48.2133C102.06 48.3134 101.572 48.3634 101.057 48.3634C100.886 48.3634 100.674 48.3491 100.422 48.3205C100.174 48.2967 99.9191 48.2586 99.6571 48.2062C99.3952 48.1586 99.1475 48.099 98.9141 48.0276C98.6807 47.9561 98.4925 47.8751 98.3496 47.7846ZM113.368 39.3896H110.424V48.1919H108.724V39.3896H105.787V37.9464H113.368V39.3896ZM118.476 48.3634C117 48.3634 115.816 47.8847 114.925 46.9273C114.039 45.9699 113.596 44.7243 113.596 43.1906C113.596 41.5426 114.049 40.2279 114.954 39.2467C115.859 38.2655 117.088 37.7749 118.641 37.7749C120.079 37.7749 121.237 38.2512 122.113 39.2039C122.994 40.1565 123.435 41.402 123.435 42.9405C123.435 44.6124 122.985 45.9342 122.084 46.9058C121.184 47.8775 119.981 48.3634 118.476 48.3634ZM118.555 39.2682C117.617 39.2682 116.852 39.6183 116.261 40.3184C115.676 41.0186 115.383 41.9403 115.383 43.0834C115.383 44.2218 115.668 45.1387 116.24 45.8341C116.812 46.5296 117.559 46.8773 118.483 46.8773C119.465 46.8773 120.239 46.5462 120.805 45.8842C121.372 45.2221 121.656 44.2956 121.656 43.1049C121.656 41.8807 121.379 40.9353 120.827 40.2684C120.279 39.6016 119.522 39.2682 118.555 39.2682ZM133.23 48.1919H131.244L129.608 45.4483C129.46 45.1959 129.315 44.9815 129.172 44.8053C129.034 44.6243 128.891 44.4766 128.743 44.3623C128.6 44.248 128.443 44.1647 128.272 44.1123C128.1 44.0599 127.907 44.0337 127.693 44.0337H127.007V48.1919H125.314V37.9464H128.686C129.167 37.9464 129.61 38.0035 130.015 38.1179C130.42 38.2322 130.772 38.406 131.072 38.6394C131.372 38.8681 131.606 39.1562 131.773 39.5039C131.944 39.8469 132.03 40.2494 132.03 40.7114C132.03 41.0734 131.975 41.4068 131.865 41.7116C131.761 42.0117 131.608 42.2808 131.408 42.519C131.213 42.7524 130.975 42.9524 130.694 43.1192C130.417 43.2859 130.105 43.4145 129.758 43.505V43.5335C129.944 43.6383 130.105 43.755 130.244 43.8836C130.382 44.0075 130.513 44.1361 130.637 44.2695C130.76 44.4028 130.882 44.5552 131.001 44.7267C131.125 44.8934 131.261 45.0887 131.408 45.3126L133.23 48.1919ZM127.007 39.3253V42.6547H128.422C128.684 42.6547 128.924 42.6143 129.143 42.5333C129.367 42.4523 129.56 42.3356 129.722 42.1832C129.884 42.0308 130.01 41.845 130.101 41.6259C130.191 41.4068 130.236 41.1615 130.236 40.89C130.236 40.3994 130.082 40.016 129.772 39.7397C129.462 39.4634 129.017 39.3253 128.436 39.3253H127.007ZM140.182 48.1919H134.43V37.9464H139.953V39.3896H136.131V42.2904H139.653V43.7265H136.131V46.7558H140.182V48.1919Z" fill="white"/>
<defs>
<clipPath id="clip0_1501_8765">
<rect width="35.1176" height="35.1176" fill="white" transform="translate(19.7537 14.6328)"/>
</clipPath>
</defs>
</svg>
