<svg width="248" height="85" viewBox="0 0 248 85" fill="none" xmlns="http://www.w3.org/2000/svg">
<rect width="247.273" height="85" rx="30.9091" fill="url(#paint0_linear_1601_9019)"/>
<g clip-path="url(#clip0_1601_9019)">
<path d="M61.9294 43.9316C61.8768 38.0689 66.7177 35.2543 66.9367 35.1171C64.2126 31.1317 59.9732 30.5857 58.4608 30.5215C54.855 30.1565 51.4215 32.6441 49.5937 32.6441C47.766 32.6441 44.9398 30.574 41.95 30.6324C38.0143 30.6908 34.3909 32.9185 32.3647 36.4397C28.28 43.5258 31.3224 54.0279 35.299 59.7797C37.2464 62.5913 39.5646 65.7592 42.6128 65.6424C45.55 65.5256 46.6595 63.7446 50.204 63.7446C53.7485 63.7446 54.747 65.6424 57.8506 65.5869C61.0068 65.5256 63.0097 62.7139 64.9425 59.8935C67.1732 56.6293 68.0958 53.4702 68.1483 53.3038C68.0783 53.2746 61.9936 50.9418 61.9294 43.9316Z" fill="#FAFCFF"/>
<path d="M56.0986 26.7166C57.7161 24.7575 58.808 22.0334 58.5072 19.3182C56.1772 19.4117 53.3569 20.8715 51.6839 22.8306C50.1861 24.562 48.8723 27.3357 49.2283 29.9956C51.8269 30.197 54.4808 28.6728 56.0986 26.7166Z" fill="#FAFCFF"/>
</g>
<path d="M89.6711 37.4545H93.2555C95.4722 37.4545 97.2455 36.8225 98.5661 35.5586C99.8867 34.2946 100.556 32.6156 100.556 30.5215C100.556 26.1258 98.1699 23.928 93.4064 23.928H89.6711V37.4545ZM91.2557 25.3618H93.3687C97.0474 25.3618 98.8962 27.0974 98.8962 30.5592C98.8962 32.3043 98.3963 33.6531 97.4153 34.5964C96.4249 35.5491 95.0477 36.0208 93.2743 36.0208H91.2557V25.3618ZM107.046 37.6809C108.508 37.6809 109.678 37.2187 110.546 36.2943C111.413 35.3699 111.857 34.1342 111.857 32.5873C111.857 31.0214 111.451 29.7857 110.64 28.8991C109.829 28.0124 108.706 27.5691 107.272 27.5691C105.763 27.5691 104.565 28.0313 103.679 28.9368C102.792 29.8518 102.349 31.1158 102.349 32.7382C102.349 34.2285 102.773 35.4265 103.622 36.332C104.471 37.2376 105.612 37.6809 107.046 37.6809ZM107.159 28.8708C108.159 28.8708 108.923 29.2009 109.461 29.8518C109.999 30.5121 110.272 31.4365 110.272 32.6438C110.272 33.8418 109.999 34.7662 109.461 35.4076C108.923 36.0585 108.159 36.3792 107.159 36.3792C106.178 36.3792 105.395 36.0491 104.811 35.3888C104.226 34.7285 103.933 33.8324 103.933 32.6816C103.933 31.4931 104.216 30.5687 104.801 29.8895C105.377 29.2103 106.159 28.8708 107.159 28.8708ZM126.496 27.7954H124.968L123.006 35.0775C122.912 35.4171 122.855 35.7 122.846 35.9453H122.77C122.733 35.6057 122.686 35.3133 122.629 35.0775L120.629 27.7954H119.214L116.988 35.0398C116.894 35.3605 116.837 35.6529 116.818 35.9264H116.743C116.715 35.568 116.667 35.285 116.611 35.0586L114.611 27.7954H112.989L115.913 37.4545H117.46L119.62 30.5215C119.733 30.163 119.799 29.8706 119.818 29.6442H119.856C119.875 29.9838 119.931 30.2762 120.007 30.5404L121.997 37.4545H123.6L126.496 27.7954ZM136.306 37.4545V31.5497C136.306 30.2668 136.023 29.2764 135.467 28.5972C134.901 27.9181 134.099 27.5691 133.043 27.5691C131.656 27.5691 130.6 28.1822 129.873 29.399H129.836V27.7954H128.289V37.4545H129.836V31.9458C129.836 31.0592 130.081 30.3328 130.59 29.748C131.1 29.1632 131.741 28.8708 132.514 28.8708C134.005 28.8708 134.759 29.8989 134.759 31.9458V37.4545H136.306ZM140.777 37.4545V23.1545H139.23V37.4545H140.777ZM147.946 37.6809C149.408 37.6809 150.578 37.2187 151.446 36.2943C152.314 35.3699 152.757 34.1342 152.757 32.5873C152.757 31.0214 152.351 29.7857 151.54 28.8991C150.729 28.0124 149.606 27.5691 148.173 27.5691C146.663 27.5691 145.466 28.0313 144.579 28.9368C143.692 29.8518 143.249 31.1158 143.249 32.7382C143.249 34.2285 143.673 35.4265 144.522 36.332C145.371 37.2376 146.513 37.6809 147.946 37.6809ZM148.06 28.8708C149.059 28.8708 149.823 29.2009 150.361 29.8518C150.899 30.5121 151.172 31.4365 151.172 32.6438C151.172 33.8418 150.899 34.7662 150.361 35.4076C149.823 36.0585 149.059 36.3792 148.06 36.3792C147.079 36.3792 146.296 36.0491 145.711 35.3888C145.126 34.7285 144.834 33.8324 144.834 32.6816C144.834 31.4931 145.117 30.5687 145.701 29.8895C146.277 29.2103 147.06 28.8708 148.06 28.8708ZM161.878 37.4545V31.1723C161.878 28.7764 160.737 27.5691 158.473 27.5691C157.228 27.5691 156.134 27.8709 155.191 28.4746V30.0593C156.124 29.2669 157.171 28.8708 158.341 28.8708C159.662 28.8708 160.331 29.6914 160.331 31.3327L157.436 31.7383C155.304 32.0402 154.247 33.0872 154.247 34.8888C154.247 35.7378 154.511 36.4075 155.059 36.9169C155.606 37.4262 156.36 37.6809 157.322 37.6809C158.624 37.6809 159.615 37.1055 160.294 35.9453H160.331V37.4545H161.878ZM160.331 32.5684V33.5305C160.331 34.3606 160.077 35.0398 159.577 35.5774C159.077 36.1151 158.445 36.3792 157.681 36.3792C157.115 36.3792 156.672 36.2377 156.332 35.9359C155.992 35.634 155.832 35.2473 155.832 34.7756C155.832 34.1342 156.011 33.6814 156.379 33.4268C156.738 33.1721 157.285 32.9929 158.002 32.8891L160.331 32.5684ZM173.037 37.4545V23.1545H171.49V29.1349H171.453C170.849 28.0973 169.877 27.5691 168.557 27.5691C167.217 27.5691 166.142 28.0501 165.34 29.0123C164.529 29.9744 164.133 31.2572 164.133 32.8514C164.133 34.3417 164.491 35.5208 165.218 36.3886C165.944 37.2564 166.915 37.6809 168.132 37.6809C169.623 37.6809 170.736 37.0584 171.453 35.8132H171.49V37.4545H173.037ZM171.49 33.0872C171.49 34.0399 171.217 34.8228 170.679 35.4454C170.141 36.0679 169.443 36.3792 168.585 36.3792C167.708 36.3792 167.01 36.0585 166.491 35.4171C165.972 34.7756 165.718 33.889 165.718 32.7759C165.718 31.5591 165.982 30.6064 166.529 29.9084C167.066 29.2198 167.812 28.8708 168.755 28.8708C169.547 28.8708 170.198 29.1443 170.717 29.682C171.226 30.2291 171.49 30.8894 171.49 31.6628V33.0872ZM186.243 24.5129V23.1168C185.96 23.0036 185.592 22.947 185.121 22.947C184.243 22.947 183.517 23.2489 182.932 23.8337C182.347 24.4185 182.055 25.2203 182.055 26.2296V27.7954H180.404V29.116H182.055V37.4545H183.593V29.116H185.856V27.7954H183.593V26.3051C183.593 24.9468 184.13 24.2582 185.215 24.2582C185.592 24.2582 185.941 24.3431 186.243 24.5129ZM192.563 29.3613V27.7577C192.346 27.6728 192.035 27.6256 191.639 27.6256C191.073 27.6256 190.573 27.8237 190.12 28.201C189.667 28.5784 189.328 29.1066 189.111 29.7857H189.073V27.7954H187.526V37.4545H189.073V32.5307C189.073 31.4553 189.29 30.6064 189.733 29.9838C190.177 29.3613 190.733 29.05 191.393 29.05C191.903 29.05 192.289 29.1537 192.563 29.3613ZM198.015 37.6809C199.477 37.6809 200.647 37.2187 201.515 36.2943C202.382 35.3699 202.826 34.1342 202.826 32.5873C202.826 31.0214 202.42 29.7857 201.609 28.8991C200.798 28.0124 199.675 27.5691 198.241 27.5691C196.732 27.5691 195.534 28.0313 194.648 28.9368C193.761 29.8518 193.318 31.1158 193.318 32.7382C193.318 34.2285 193.742 35.4265 194.591 36.332C195.44 37.2376 196.581 37.6809 198.015 37.6809ZM198.128 28.8708C199.128 28.8708 199.892 29.2009 200.43 29.8518C200.968 30.5121 201.241 31.4365 201.241 32.6438C201.241 33.8418 200.968 34.7662 200.43 35.4076C199.892 36.0585 199.128 36.3792 198.128 36.3792C197.147 36.3792 196.364 36.0491 195.78 35.3888C195.195 34.7285 194.902 33.8324 194.902 32.6816C194.902 31.4931 195.185 30.5687 195.77 29.8895C196.346 29.2103 197.128 28.8708 198.128 28.8708ZM219.012 37.4545V31.5025C219.012 28.8802 217.946 27.5691 215.824 27.5691C214.4 27.5691 213.334 28.2388 212.617 29.5688C212.428 28.9745 212.098 28.4935 211.608 28.1256C211.117 27.7577 210.542 27.5691 209.881 27.5691C208.561 27.5691 207.561 28.1539 206.882 29.3235H206.844V27.7954H205.297V37.4545H206.844V31.9458C206.844 31.0403 207.061 30.2951 207.504 29.7291C207.938 29.1632 208.504 28.8708 209.183 28.8708C210.646 28.8708 211.381 29.8235 211.381 31.7194V37.4545H212.928V31.9458C212.928 31.1063 213.155 30.38 213.617 29.7763C214.079 29.1726 214.645 28.8708 215.305 28.8708C216.079 28.8708 216.635 29.116 216.965 29.5877C217.296 30.0687 217.465 30.8422 217.465 31.9081V37.4545H219.012Z" fill="white"/>
<path d="M100.679 64.5L95.6514 50.9735H93.1234L88.0581 64.5H90.5106L91.6802 61.0571H97.0003L98.2171 64.5H100.679ZM96.406 59.2271H92.265L94.1233 53.8316C94.1893 53.6241 94.2553 53.3411 94.3119 52.9827H94.3497C94.4063 53.3788 94.4723 53.6618 94.5289 53.8316L96.406 59.2271ZM104.782 59.595H106.584C108.103 59.595 109.31 59.18 110.206 58.3404C111.093 57.5104 111.545 56.435 111.545 55.1145C111.545 53.8033 111.112 52.7846 110.263 52.0583C109.404 51.3414 108.197 50.9735 106.65 50.9735H102.547V64.5H104.782V59.595ZM104.782 52.8223H106.414C108.263 52.8223 109.187 53.6241 109.187 55.2088C109.187 56.02 108.933 56.652 108.433 57.0953C107.923 57.5481 107.197 57.765 106.235 57.765H104.782V52.8223ZM116.083 59.595H117.884C119.403 59.595 120.61 59.18 121.506 58.3404C122.393 57.5104 122.846 56.435 122.846 55.1145C122.846 53.8033 122.412 52.7846 121.563 52.0583C120.705 51.3414 119.497 50.9735 117.95 50.9735H113.847V64.5H116.083V59.595ZM116.083 52.8223H117.714C119.563 52.8223 120.488 53.6241 120.488 55.2088C120.488 56.02 120.233 56.652 119.733 57.0953C119.224 57.5481 118.497 57.765 117.535 57.765H116.083V52.8223ZM129.845 63.9623C130.034 64.085 130.279 64.1887 130.59 64.283C130.892 64.3774 131.222 64.4623 131.571 64.5283C131.911 64.5943 132.25 64.6415 132.58 64.6792C132.911 64.717 133.194 64.7264 133.42 64.7264C134.099 64.7264 134.741 64.6604 135.354 64.5283C135.957 64.3962 136.495 64.1887 136.967 63.8869C137.438 63.5945 137.806 63.2077 138.089 62.7361C138.363 62.2644 138.504 61.6891 138.504 61.0005C138.504 60.4911 138.41 60.0383 138.221 59.6422C138.033 59.246 137.787 58.8781 137.467 58.548C137.146 58.2273 136.778 57.9254 136.363 57.6519C135.948 57.3877 135.505 57.1236 135.033 56.8784C134.571 56.6803 134.165 56.4916 133.816 56.3218C133.467 56.1521 133.175 55.9728 132.929 55.7842C132.684 55.605 132.505 55.4069 132.382 55.1805C132.25 54.9635 132.194 54.6994 132.194 54.3976C132.194 54.0769 132.269 53.8033 132.439 53.5769C132.599 53.3505 132.807 53.1713 133.071 53.0204C133.335 52.8789 133.627 52.7751 133.958 52.7091C134.288 52.6525 134.618 52.6148 134.957 52.6148C136.165 52.6148 137.146 52.8978 137.919 53.4449V51.2282C137.268 50.9075 136.24 50.7471 134.825 50.7471C134.203 50.7471 133.59 50.8226 132.995 50.9735C132.392 51.1244 131.864 51.3508 131.392 51.6527C130.92 51.9545 130.543 52.3412 130.26 52.8129C129.977 53.2845 129.836 53.8316 129.836 54.4636C129.836 54.9824 129.911 55.4352 130.081 55.8125C130.251 56.1992 130.477 56.5482 130.769 56.8501C131.062 57.1519 131.411 57.4349 131.807 57.6802C132.203 57.9348 132.628 58.1801 133.09 58.4253C133.514 58.6234 133.91 58.8121 134.288 58.9913C134.665 59.1705 134.986 59.3592 135.269 59.5478C135.542 59.7459 135.759 59.9629 135.91 60.1987C136.061 60.4345 136.146 60.7081 136.146 61.0288C136.146 61.6325 135.91 62.0852 135.448 62.3965C134.986 62.7172 134.288 62.8681 133.344 62.8681C133.071 62.8681 132.779 62.8398 132.458 62.7832C132.137 62.7267 131.816 62.6512 131.496 62.5474C131.175 62.4437 130.864 62.3116 130.581 62.1607C130.298 62.0098 130.052 61.84 129.845 61.6513V63.9623ZM149.672 52.8789V50.9735H139.664V52.8789H143.541V64.5H145.786V52.8789H149.672ZM156.417 64.7264C158.398 64.7264 159.992 64.085 161.18 62.8021C162.369 61.5193 162.963 59.7742 162.963 57.567C162.963 55.5389 162.378 53.8976 161.218 52.6337C160.058 51.3791 158.53 50.7471 156.634 50.7471C154.578 50.7471 152.955 51.398 151.767 52.6903C150.569 53.992 149.974 55.7276 149.974 57.8971C149.974 59.9251 150.559 61.5664 151.729 62.8304C152.898 64.0944 154.464 64.7264 156.417 64.7264ZM156.521 52.7186C157.794 52.7186 158.794 53.1619 159.52 54.0391C160.247 54.9258 160.614 56.1709 160.614 57.7839C160.614 59.3592 160.237 60.5854 159.492 61.4532C158.737 62.3305 157.719 62.7644 156.426 62.7644C155.2 62.7644 154.219 62.3116 153.464 61.3872C152.71 60.4722 152.333 59.2648 152.333 57.7556C152.333 56.2464 152.719 55.0296 153.493 54.1052C154.266 53.1808 155.276 52.7186 156.521 52.7186ZM175.895 64.5L173.49 60.6986C173.292 60.4062 173.113 60.1515 172.952 59.9251C172.792 59.6988 172.632 59.5007 172.471 59.3214C172.302 59.1517 172.132 58.9819 171.953 58.8121C171.764 58.6423 171.556 58.4914 171.311 58.3499V58.3121C171.764 58.199 172.179 58.0292 172.547 57.8028C172.915 57.5858 173.226 57.3217 173.49 57.0104C173.754 56.6992 173.952 56.3407 174.094 55.9445C174.235 55.5484 174.311 55.105 174.311 54.624C174.311 54.0203 174.198 53.4826 173.971 53.0298C173.745 52.5771 173.443 52.1903 173.047 51.8885C172.651 51.5866 172.179 51.3508 171.651 51.1999C171.113 51.049 170.528 50.9735 169.896 50.9735H165.444V64.5H167.68V59.0102H168.585C168.868 59.0102 169.123 59.0479 169.349 59.1139C169.576 59.1894 169.783 59.2931 169.972 59.4441C170.16 59.595 170.349 59.7931 170.538 60.0289C170.726 60.2647 170.915 60.5477 171.113 60.8778L173.273 64.5H175.895ZM167.68 52.794H169.566C170.33 52.794 170.915 52.9827 171.33 53.3411C171.736 53.709 171.943 54.2184 171.943 54.8598C171.943 55.2182 171.877 55.5484 171.764 55.8313C171.641 56.1238 171.471 56.369 171.264 56.5671C171.047 56.7746 170.792 56.9255 170.5 57.0293C170.207 57.1425 169.887 57.1897 169.547 57.1897H167.68V52.794ZM185.073 64.5V62.604H179.725V58.6046H184.375V56.7086H179.725V52.8789H184.772V50.9735H177.48V64.5H185.073Z" fill="white"/>
<defs>
<linearGradient id="paint0_linear_1601_9019" x1="-6.07597e-06" y1="85" x2="43.0899" y2="-40.3524" gradientUnits="userSpaceOnUse">
<stop stop-color="#F7B924"/>
<stop offset="1" stop-color="#FABF32"/>
</linearGradient>
<clipPath id="clip0_1601_9019">
<rect width="46.3636" height="46.3636" fill="white" transform="translate(26.0796 19.3182)"/>
</clipPath>
</defs>
</svg>
