<svg width="343" height="152" viewBox="0 0 343 152" fill="none" xmlns="http://www.w3.org/2000/svg">
<path d="M16.5938 99.3965L13.0342 112H11.3027L8.70996 102.789C8.59863 102.396 8.53125 101.969 8.50781 101.506H8.47266C8.4375 101.939 8.36133 102.361 8.24414 102.771L5.63379 112H3.91992L0.228516 99.3965H1.85449L4.53516 109.064C4.64648 109.469 4.7168 109.891 4.74609 110.33H4.79004C4.81934 110.02 4.91016 109.598 5.0625 109.064L7.84863 99.3965H9.26367L11.9355 109.135C12.0293 109.469 12.0996 109.861 12.1465 110.312H12.1816C12.2051 110.008 12.2842 109.604 12.4189 109.1L14.9941 99.3965H16.5938ZM27.5547 112.211C25.7676 112.211 24.335 111.622 23.2568 110.444C22.1846 109.267 21.6484 107.734 21.6484 105.848C21.6484 103.82 22.1963 102.203 23.292 100.996C24.3877 99.7891 25.8789 99.1855 27.7656 99.1855C29.5059 99.1855 30.9062 99.7715 31.9668 100.943C33.0332 102.115 33.5664 103.647 33.5664 105.54C33.5664 107.597 33.0215 109.223 31.9316 110.418C30.8418 111.613 29.3828 112.211 27.5547 112.211ZM27.6602 100.521C26.3359 100.521 25.2607 100.999 24.4346 101.954C23.6084 102.909 23.1953 104.163 23.1953 105.716C23.1953 107.269 23.5967 108.52 24.3994 109.469C25.208 110.412 26.2598 110.884 27.5547 110.884C28.9375 110.884 30.0273 110.433 30.8242 109.53C31.6211 108.628 32.0195 107.365 32.0195 105.742C32.0195 104.078 31.6328 102.792 30.8594 101.884C30.0859 100.976 29.0195 100.521 27.6602 100.521ZM49.0801 112H47.3223L45.2129 108.467C45.0195 108.139 44.832 107.86 44.6504 107.632C44.4688 107.397 44.2812 107.207 44.0879 107.061C43.9004 106.914 43.6953 106.809 43.4727 106.744C43.2559 106.674 43.0098 106.639 42.7344 106.639H41.5215V112H40.0449V99.3965H43.8066C44.3574 99.3965 44.8643 99.4668 45.3271 99.6074C45.7959 99.7422 46.2002 99.9502 46.54 100.231C46.8857 100.513 47.1553 100.864 47.3486 101.286C47.542 101.702 47.6387 102.191 47.6387 102.754C47.6387 103.193 47.5713 103.598 47.4365 103.967C47.3076 104.33 47.1201 104.655 46.874 104.942C46.6338 105.229 46.3408 105.476 45.9951 105.681C45.6553 105.88 45.2715 106.035 44.8438 106.146V106.182C45.0547 106.275 45.2363 106.384 45.3887 106.507C45.5469 106.624 45.6963 106.765 45.8369 106.929C45.9775 107.093 46.1152 107.28 46.25 107.491C46.3906 107.696 46.5459 107.937 46.7158 108.212L49.0801 112ZM41.5215 100.732V105.303H43.5254C43.8945 105.303 44.2344 105.247 44.5449 105.136C44.8613 105.024 45.1338 104.866 45.3623 104.661C45.5908 104.45 45.7695 104.195 45.8984 103.896C46.0273 103.592 46.0918 103.252 46.0918 102.877C46.0918 102.203 45.8721 101.679 45.4326 101.304C44.999 100.923 44.3691 100.732 43.543 100.732H41.5215ZM61.3594 112H54.8203V99.3965H56.2969V110.664H61.3594V112ZM67.293 112V99.3965H70.7734C75.2148 99.3965 77.4355 101.444 77.4355 105.54C77.4355 107.485 76.8174 109.05 75.5811 110.233C74.3506 111.411 72.7012 112 70.6328 112H67.293ZM68.7695 100.732V110.664H70.6504C72.3027 110.664 73.5889 110.222 74.5088 109.337C75.4287 108.452 75.8887 107.198 75.8887 105.575C75.8887 102.347 74.1719 100.732 70.7383 100.732H68.7695ZM97.9336 112.211C96.1465 112.211 94.7139 111.622 93.6357 110.444C92.5635 109.267 92.0273 107.734 92.0273 105.848C92.0273 103.82 92.5752 102.203 93.6709 100.996C94.7666 99.7891 96.2578 99.1855 98.1445 99.1855C99.8848 99.1855 101.285 99.7715 102.346 100.943C103.412 102.115 103.945 103.647 103.945 105.54C103.945 107.597 103.4 109.223 102.311 110.418C101.221 111.613 99.7617 112.211 97.9336 112.211ZM98.0391 100.521C96.7148 100.521 95.6396 100.999 94.8135 101.954C93.9873 102.909 93.5742 104.163 93.5742 105.716C93.5742 107.269 93.9756 108.52 94.7783 109.469C95.5869 110.412 96.6387 110.884 97.9336 110.884C99.3164 110.884 100.406 110.433 101.203 109.53C102 108.628 102.398 107.365 102.398 105.742C102.398 104.078 102.012 102.792 101.238 101.884C100.465 100.976 99.3984 100.521 98.0391 100.521ZM116.822 100.732H111.9V105.092H116.453V106.419H111.9V112H110.424V99.3965H116.822V100.732ZM131.563 111.49V109.75C131.763 109.926 132 110.084 132.275 110.225C132.557 110.365 132.85 110.485 133.154 110.585C133.465 110.679 133.775 110.752 134.086 110.805C134.396 110.857 134.684 110.884 134.947 110.884C135.855 110.884 136.532 110.717 136.978 110.383C137.429 110.043 137.654 109.557 137.654 108.924C137.654 108.584 137.578 108.288 137.426 108.036C137.279 107.784 137.074 107.556 136.811 107.351C136.547 107.14 136.233 106.94 135.87 106.753C135.513 106.56 135.126 106.357 134.71 106.146C134.271 105.924 133.86 105.698 133.479 105.47C133.099 105.241 132.768 104.989 132.486 104.714C132.205 104.438 131.982 104.128 131.818 103.782C131.66 103.431 131.581 103.021 131.581 102.552C131.581 101.978 131.707 101.479 131.959 101.058C132.211 100.63 132.542 100.278 132.952 100.003C133.362 99.7275 133.828 99.5225 134.35 99.3877C134.877 99.2529 135.413 99.1855 135.958 99.1855C137.2 99.1855 138.105 99.335 138.674 99.6338V101.295C137.93 100.779 136.975 100.521 135.809 100.521C135.486 100.521 135.164 100.557 134.842 100.627C134.52 100.691 134.232 100.8 133.98 100.952C133.729 101.104 133.523 101.301 133.365 101.541C133.207 101.781 133.128 102.074 133.128 102.42C133.128 102.742 133.187 103.021 133.304 103.255C133.427 103.489 133.605 103.703 133.84 103.896C134.074 104.09 134.358 104.277 134.692 104.459C135.032 104.641 135.422 104.84 135.861 105.057C136.312 105.279 136.74 105.514 137.145 105.76C137.549 106.006 137.903 106.278 138.208 106.577C138.513 106.876 138.753 107.207 138.929 107.57C139.11 107.934 139.201 108.35 139.201 108.818C139.201 109.439 139.078 109.967 138.832 110.4C138.592 110.828 138.264 111.177 137.848 111.446C137.438 111.716 136.963 111.909 136.424 112.026C135.885 112.149 135.316 112.211 134.719 112.211C134.52 112.211 134.273 112.193 133.98 112.158C133.688 112.129 133.389 112.082 133.084 112.018C132.779 111.959 132.489 111.886 132.214 111.798C131.944 111.704 131.728 111.602 131.563 111.49ZM158.564 112H157.097V103.545C157.097 102.877 157.138 102.06 157.22 101.093H157.185C157.044 101.661 156.918 102.068 156.807 102.314L152.5 112H151.779L147.481 102.385C147.358 102.104 147.232 101.673 147.104 101.093H147.068C147.115 101.597 147.139 102.42 147.139 103.562V112H145.715V99.3965H147.666L151.533 108.186C151.832 108.859 152.025 109.363 152.113 109.697H152.166C152.418 109.006 152.62 108.49 152.772 108.15L156.719 99.3965H158.564V112ZM175.643 112H174.008L172.672 108.467H167.328L166.071 112H164.428L169.262 99.3965H170.791L175.643 112ZM172.188 107.14L170.211 101.77C170.146 101.594 170.082 101.312 170.018 100.926H169.982C169.924 101.283 169.856 101.564 169.78 101.77L167.82 107.14H172.188ZM190.541 112H188.783L186.674 108.467C186.48 108.139 186.293 107.86 186.111 107.632C185.93 107.397 185.742 107.207 185.549 107.061C185.361 106.914 185.156 106.809 184.934 106.744C184.717 106.674 184.471 106.639 184.195 106.639H182.982V112H181.506V99.3965H185.268C185.818 99.3965 186.325 99.4668 186.788 99.6074C187.257 99.7422 187.661 99.9502 188.001 100.231C188.347 100.513 188.616 100.864 188.81 101.286C189.003 101.702 189.1 102.191 189.1 102.754C189.1 103.193 189.032 103.598 188.897 103.967C188.769 104.33 188.581 104.655 188.335 104.942C188.095 105.229 187.802 105.476 187.456 105.681C187.116 105.88 186.732 106.035 186.305 106.146V106.182C186.516 106.275 186.697 106.384 186.85 106.507C187.008 106.624 187.157 106.765 187.298 106.929C187.438 107.093 187.576 107.28 187.711 107.491C187.852 107.696 188.007 107.937 188.177 108.212L190.541 112ZM182.982 100.732V105.303H184.986C185.355 105.303 185.695 105.247 186.006 105.136C186.322 105.024 186.595 104.866 186.823 104.661C187.052 104.45 187.23 104.195 187.359 103.896C187.488 103.592 187.553 103.252 187.553 102.877C187.553 102.203 187.333 101.679 186.894 101.304C186.46 100.923 185.83 100.732 185.004 100.732H182.982ZM202.926 100.732H199.287V112H197.811V100.732H194.181V99.3965H202.926V100.732ZM217.263 111.49V109.75C217.462 109.926 217.699 110.084 217.975 110.225C218.256 110.365 218.549 110.485 218.854 110.585C219.164 110.679 219.475 110.752 219.785 110.805C220.096 110.857 220.383 110.884 220.646 110.884C221.555 110.884 222.231 110.717 222.677 110.383C223.128 110.043 223.354 109.557 223.354 108.924C223.354 108.584 223.277 108.288 223.125 108.036C222.979 107.784 222.773 107.556 222.51 107.351C222.246 107.14 221.933 106.94 221.569 106.753C221.212 106.56 220.825 106.357 220.409 106.146C219.97 105.924 219.56 105.698 219.179 105.47C218.798 105.241 218.467 104.989 218.186 104.714C217.904 104.438 217.682 104.128 217.518 103.782C217.359 103.431 217.28 103.021 217.28 102.552C217.28 101.978 217.406 101.479 217.658 101.058C217.91 100.63 218.241 100.278 218.651 100.003C219.062 99.7275 219.527 99.5225 220.049 99.3877C220.576 99.2529 221.112 99.1855 221.657 99.1855C222.899 99.1855 223.805 99.335 224.373 99.6338V101.295C223.629 100.779 222.674 100.521 221.508 100.521C221.186 100.521 220.863 100.557 220.541 100.627C220.219 100.691 219.932 100.8 219.68 100.952C219.428 101.104 219.223 101.301 219.064 101.541C218.906 101.781 218.827 102.074 218.827 102.42C218.827 102.742 218.886 103.021 219.003 103.255C219.126 103.489 219.305 103.703 219.539 103.896C219.773 104.09 220.058 104.277 220.392 104.459C220.731 104.641 221.121 104.84 221.561 105.057C222.012 105.279 222.439 105.514 222.844 105.76C223.248 106.006 223.603 106.278 223.907 106.577C224.212 106.876 224.452 107.207 224.628 107.57C224.81 107.934 224.9 108.35 224.9 108.818C224.9 109.439 224.777 109.967 224.531 110.4C224.291 110.828 223.963 111.177 223.547 111.446C223.137 111.716 222.662 111.909 222.123 112.026C221.584 112.149 221.016 112.211 220.418 112.211C220.219 112.211 219.973 112.193 219.68 112.158C219.387 112.129 219.088 112.082 218.783 112.018C218.479 111.959 218.188 111.886 217.913 111.798C217.644 111.704 217.427 111.602 217.263 111.49ZM236.494 112.211C234.707 112.211 233.274 111.622 232.196 110.444C231.124 109.267 230.588 107.734 230.588 105.848C230.588 103.82 231.136 102.203 232.231 100.996C233.327 99.7891 234.818 99.1855 236.705 99.1855C238.445 99.1855 239.846 99.7715 240.906 100.943C241.973 102.115 242.506 103.647 242.506 105.54C242.506 107.597 241.961 109.223 240.871 110.418C239.781 111.613 238.322 112.211 236.494 112.211ZM236.6 100.521C235.275 100.521 234.2 100.999 233.374 101.954C232.548 102.909 232.135 104.163 232.135 105.716C232.135 107.269 232.536 108.52 233.339 109.469C234.147 110.412 235.199 110.884 236.494 110.884C237.877 110.884 238.967 110.433 239.764 109.53C240.561 108.628 240.959 107.365 240.959 105.742C240.959 104.078 240.572 102.792 239.799 101.884C239.025 100.976 237.959 100.521 236.6 100.521ZM255.523 112H248.984V99.3965H250.461V110.664H255.523V112ZM270.325 106.902C270.325 110.441 268.729 112.211 265.535 112.211C262.477 112.211 260.947 110.509 260.947 107.104V99.3965H262.424V107.008C262.424 109.592 263.514 110.884 265.693 110.884C267.797 110.884 268.849 109.636 268.849 107.14V99.3965H270.325V106.902ZM284.934 100.732H281.295V112H279.818V100.732H276.188V99.3965H284.934V100.732ZM292.396 112H290.92V99.3965H292.396V112ZM304.799 112.211C303.012 112.211 301.579 111.622 300.501 110.444C299.429 109.267 298.893 107.734 298.893 105.848C298.893 103.82 299.44 102.203 300.536 100.996C301.632 99.7891 303.123 99.1855 305.01 99.1855C306.75 99.1855 308.15 99.7715 309.211 100.943C310.277 102.115 310.811 103.647 310.811 105.54C310.811 107.597 310.266 109.223 309.176 110.418C308.086 111.613 306.627 112.211 304.799 112.211ZM304.904 100.521C303.58 100.521 302.505 100.999 301.679 101.954C300.853 102.909 300.439 104.163 300.439 105.716C300.439 107.269 300.841 108.52 301.644 109.469C302.452 110.412 303.504 110.884 304.799 110.884C306.182 110.884 307.271 110.433 308.068 109.53C308.865 108.628 309.264 107.365 309.264 105.742C309.264 104.078 308.877 102.792 308.104 101.884C307.33 100.976 306.264 100.521 304.904 100.521ZM327.449 112H325.639L319.152 101.954C318.988 101.702 318.854 101.438 318.748 101.163H318.695C318.742 101.433 318.766 102.01 318.766 102.895V112H317.289V99.3965H319.205L325.516 109.284C325.779 109.694 325.949 109.976 326.025 110.128H326.061C326.002 109.765 325.973 109.146 325.973 108.273V99.3965H327.449V112ZM334.165 111.49V109.75C334.364 109.926 334.602 110.084 334.877 110.225C335.158 110.365 335.451 110.485 335.756 110.585C336.066 110.679 336.377 110.752 336.688 110.805C336.998 110.857 337.285 110.884 337.549 110.884C338.457 110.884 339.134 110.717 339.579 110.383C340.03 110.043 340.256 109.557 340.256 108.924C340.256 108.584 340.18 108.288 340.027 108.036C339.881 107.784 339.676 107.556 339.412 107.351C339.148 107.14 338.835 106.94 338.472 106.753C338.114 106.56 337.728 106.357 337.312 106.146C336.872 105.924 336.462 105.698 336.081 105.47C335.7 105.241 335.369 104.989 335.088 104.714C334.807 104.438 334.584 104.128 334.42 103.782C334.262 103.431 334.183 103.021 334.183 102.552C334.183 101.978 334.309 101.479 334.561 101.058C334.812 100.63 335.144 100.278 335.554 100.003C335.964 99.7275 336.43 99.5225 336.951 99.3877C337.479 99.2529 338.015 99.1855 338.56 99.1855C339.802 99.1855 340.707 99.335 341.275 99.6338V101.295C340.531 100.779 339.576 100.521 338.41 100.521C338.088 100.521 337.766 100.557 337.443 100.627C337.121 100.691 336.834 100.8 336.582 100.952C336.33 101.104 336.125 101.301 335.967 101.541C335.809 101.781 335.729 102.074 335.729 102.42C335.729 102.742 335.788 103.021 335.905 103.255C336.028 103.489 336.207 103.703 336.441 103.896C336.676 104.09 336.96 104.277 337.294 104.459C337.634 104.641 338.023 104.84 338.463 105.057C338.914 105.279 339.342 105.514 339.746 105.76C340.15 106.006 340.505 106.278 340.81 106.577C341.114 106.876 341.354 107.207 341.53 107.57C341.712 107.934 341.803 108.35 341.803 108.818C341.803 109.439 341.68 109.967 341.434 110.4C341.193 110.828 340.865 111.177 340.449 111.446C340.039 111.716 339.564 111.909 339.025 112.026C338.486 112.149 337.918 112.211 337.32 112.211C337.121 112.211 336.875 112.193 336.582 112.158C336.289 112.129 335.99 112.082 335.686 112.018C335.381 111.959 335.091 111.886 334.815 111.798C334.546 111.704 334.329 111.602 334.165 111.49Z" fill="#FAFCFF"/>
<path d="M16.5938 133.396L13.0342 146H11.3027L8.70996 136.789C8.59863 136.396 8.53125 135.969 8.50781 135.506H8.47266C8.4375 135.939 8.36133 136.361 8.24414 136.771L5.63379 146H3.91992L0.228516 133.396H1.85449L4.53516 143.064C4.64648 143.469 4.7168 143.891 4.74609 144.33H4.79004C4.81934 144.02 4.91016 143.598 5.0625 143.064L7.84863 133.396H9.26367L11.9355 143.135C12.0293 143.469 12.0996 143.861 12.1465 144.312H12.1816C12.2051 144.008 12.2842 143.604 12.4189 143.1L14.9941 133.396H16.5938ZM37.416 133.396L33.8564 146H32.125L29.5322 136.789C29.4209 136.396 29.3535 135.969 29.3301 135.506H29.2949C29.2598 135.939 29.1836 136.361 29.0664 136.771L26.4561 146H24.7422L21.0508 133.396H22.6768L25.3574 143.064C25.4688 143.469 25.5391 143.891 25.5684 144.33H25.6123C25.6416 144.02 25.7324 143.598 25.8848 143.064L28.6709 133.396H30.0859L32.7578 143.135C32.8516 143.469 32.9219 143.861 32.9688 144.312H33.0039C33.0273 144.008 33.1064 143.604 33.2412 143.1L35.8164 133.396H37.416ZM58.2383 133.396L54.6787 146H52.9473L50.3545 136.789C50.2432 136.396 50.1758 135.969 50.1523 135.506H50.1172C50.082 135.939 50.0059 136.361 49.8887 136.771L47.2783 146H45.5645L41.873 133.396H43.499L46.1797 143.064C46.291 143.469 46.3613 143.891 46.3906 144.33H46.4346C46.4639 144.02 46.5547 143.598 46.707 143.064L49.4932 133.396H50.9082L53.5801 143.135C53.6738 143.469 53.7441 143.861 53.791 144.312H53.8262C53.8496 144.008 53.9287 143.604 54.0635 143.1L56.6387 133.396H58.2383ZM64.4268 146.193C64.1572 146.193 63.9258 146.097 63.7324 145.903C63.5449 145.71 63.4512 145.479 63.4512 145.209C63.4512 144.939 63.5449 144.708 63.7324 144.515C63.9258 144.315 64.1572 144.216 64.4268 144.216C64.7021 144.216 64.9365 144.315 65.1299 144.515C65.3232 144.708 65.4199 144.939 65.4199 145.209C65.4199 145.479 65.3232 145.71 65.1299 145.903C64.9365 146.097 64.7021 146.193 64.4268 146.193ZM86.9629 133.396L83.4033 146H81.6719L79.0791 136.789C78.9678 136.396 78.9004 135.969 78.877 135.506H78.8418C78.8066 135.939 78.7305 136.361 78.6133 136.771L76.0029 146H74.2891L70.5977 133.396H72.2236L74.9043 143.064C75.0156 143.469 75.0859 143.891 75.1152 144.33H75.1592C75.1885 144.02 75.2793 143.598 75.4316 143.064L78.2178 133.396H79.6328L82.3047 143.135C82.3984 143.469 82.4688 143.861 82.5156 144.312H82.5508C82.5742 144.008 82.6533 143.604 82.7881 143.1L85.3633 133.396H86.9629ZM97.9238 146.211C96.1367 146.211 94.7041 145.622 93.626 144.444C92.5537 143.267 92.0176 141.734 92.0176 139.848C92.0176 137.82 92.5654 136.203 93.6611 134.996C94.7568 133.789 96.248 133.186 98.1348 133.186C99.875 133.186 101.275 133.771 102.336 134.943C103.402 136.115 103.936 137.647 103.936 139.54C103.936 141.597 103.391 143.223 102.301 144.418C101.211 145.613 99.752 146.211 97.9238 146.211ZM98.0293 134.521C96.7051 134.521 95.6299 134.999 94.8037 135.954C93.9775 136.909 93.5645 138.163 93.5645 139.716C93.5645 141.269 93.9658 142.52 94.7686 143.469C95.5771 144.412 96.6289 144.884 97.9238 144.884C99.3066 144.884 100.396 144.433 101.193 143.53C101.99 142.628 102.389 141.365 102.389 139.742C102.389 138.078 102.002 136.792 101.229 135.884C100.455 134.976 99.3887 134.521 98.0293 134.521ZM109.825 145.49V143.75C110.024 143.926 110.262 144.084 110.537 144.225C110.818 144.365 111.111 144.485 111.416 144.585C111.727 144.679 112.037 144.752 112.348 144.805C112.658 144.857 112.945 144.884 113.209 144.884C114.117 144.884 114.794 144.717 115.239 144.383C115.69 144.043 115.916 143.557 115.916 142.924C115.916 142.584 115.84 142.288 115.688 142.036C115.541 141.784 115.336 141.556 115.072 141.351C114.809 141.14 114.495 140.94 114.132 140.753C113.774 140.56 113.388 140.357 112.972 140.146C112.532 139.924 112.122 139.698 111.741 139.47C111.36 139.241 111.029 138.989 110.748 138.714C110.467 138.438 110.244 138.128 110.08 137.782C109.922 137.431 109.843 137.021 109.843 136.552C109.843 135.978 109.969 135.479 110.221 135.058C110.473 134.63 110.804 134.278 111.214 134.003C111.624 133.728 112.09 133.522 112.611 133.388C113.139 133.253 113.675 133.186 114.22 133.186C115.462 133.186 116.367 133.335 116.936 133.634V135.295C116.191 134.779 115.236 134.521 114.07 134.521C113.748 134.521 113.426 134.557 113.104 134.627C112.781 134.691 112.494 134.8 112.242 134.952C111.99 135.104 111.785 135.301 111.627 135.541C111.469 135.781 111.39 136.074 111.39 136.42C111.39 136.742 111.448 137.021 111.565 137.255C111.688 137.489 111.867 137.703 112.102 137.896C112.336 138.09 112.62 138.277 112.954 138.459C113.294 138.641 113.684 138.84 114.123 139.057C114.574 139.279 115.002 139.514 115.406 139.76C115.811 140.006 116.165 140.278 116.47 140.577C116.774 140.876 117.015 141.207 117.19 141.57C117.372 141.934 117.463 142.35 117.463 142.818C117.463 143.439 117.34 143.967 117.094 144.4C116.854 144.828 116.525 145.177 116.109 145.446C115.699 145.716 115.225 145.909 114.686 146.026C114.146 146.149 113.578 146.211 112.98 146.211C112.781 146.211 112.535 146.193 112.242 146.158C111.949 146.129 111.65 146.082 111.346 146.018C111.041 145.959 110.751 145.886 110.476 145.798C110.206 145.704 109.989 145.602 109.825 145.49ZM123.388 145.49V143.75C123.587 143.926 123.824 144.084 124.1 144.225C124.381 144.365 124.674 144.485 124.979 144.585C125.289 144.679 125.6 144.752 125.91 144.805C126.221 144.857 126.508 144.884 126.771 144.884C127.68 144.884 128.356 144.717 128.802 144.383C129.253 144.043 129.479 143.557 129.479 142.924C129.479 142.584 129.402 142.288 129.25 142.036C129.104 141.784 128.898 141.556 128.635 141.351C128.371 141.14 128.058 140.94 127.694 140.753C127.337 140.56 126.95 140.357 126.534 140.146C126.095 139.924 125.685 139.698 125.304 139.47C124.923 139.241 124.592 138.989 124.311 138.714C124.029 138.438 123.807 138.128 123.643 137.782C123.484 137.431 123.405 137.021 123.405 136.552C123.405 135.978 123.531 135.479 123.783 135.058C124.035 134.63 124.366 134.278 124.776 134.003C125.187 133.728 125.652 133.522 126.174 133.388C126.701 133.253 127.237 133.186 127.782 133.186C129.024 133.186 129.93 133.335 130.498 133.634V135.295C129.754 134.779 128.799 134.521 127.633 134.521C127.311 134.521 126.988 134.557 126.666 134.627C126.344 134.691 126.057 134.8 125.805 134.952C125.553 135.104 125.348 135.301 125.189 135.541C125.031 135.781 124.952 136.074 124.952 136.42C124.952 136.742 125.011 137.021 125.128 137.255C125.251 137.489 125.43 137.703 125.664 137.896C125.898 138.09 126.183 138.277 126.517 138.459C126.856 138.641 127.246 138.84 127.686 139.057C128.137 139.279 128.564 139.514 128.969 139.76C129.373 140.006 129.728 140.278 130.032 140.577C130.337 140.876 130.577 141.207 130.753 141.57C130.935 141.934 131.025 142.35 131.025 142.818C131.025 143.439 130.902 143.967 130.656 144.4C130.416 144.828 130.088 145.177 129.672 145.446C129.262 145.716 128.787 145.909 128.248 146.026C127.709 146.149 127.141 146.211 126.543 146.211C126.344 146.211 126.098 146.193 125.805 146.158C125.512 146.129 125.213 146.082 124.908 146.018C124.604 145.959 124.313 145.886 124.038 145.798C123.769 145.704 123.552 145.602 123.388 145.49ZM137.847 146.193C137.577 146.193 137.346 146.097 137.152 145.903C136.965 145.71 136.871 145.479 136.871 145.209C136.871 144.939 136.965 144.708 137.152 144.515C137.346 144.315 137.577 144.216 137.847 144.216C138.122 144.216 138.356 144.315 138.55 144.515C138.743 144.708 138.84 144.939 138.84 145.209C138.84 145.479 138.743 145.71 138.55 145.903C138.356 146.097 138.122 146.193 137.847 146.193ZM154.811 133.396L150.144 146H148.518L143.947 133.396H145.591L149.08 143.39C149.191 143.712 149.276 144.084 149.335 144.506H149.37C149.417 144.154 149.514 143.776 149.66 143.372L153.22 133.396H154.811ZM170.781 146H168.971L162.484 135.954C162.32 135.702 162.186 135.438 162.08 135.163H162.027C162.074 135.433 162.098 136.01 162.098 136.895V146H160.621V133.396H162.537L168.848 143.284C169.111 143.694 169.281 143.976 169.357 144.128H169.393C169.334 143.765 169.305 143.146 169.305 142.273V133.396H170.781V146Z" fill="#FAFCFF"/>
<path d="M67.8057 53.8677C67.7733 53.8032 67.7409 53.7388 67.7085 53.6743C66.0246 49.871 65.0855 45.681 65.0855 41.2331C65.0855 36.6562 66.0894 32.305 67.9028 28.3728C69.0039 25.891 70.4935 23.5382 72.3069 21.3464V21.3142H59.8395V42.8446C59.8395 45.2297 59.0299 47.2603 57.4108 48.9363C55.7917 50.6123 53.8163 51.4503 51.5171 51.4503C49.2179 51.4503 47.275 50.6123 45.6234 48.9363C43.9719 47.2603 43.1947 45.2297 43.1947 42.8446V27.7927C43.1947 24.215 40.4098 21.3464 36.9772 21.3464C33.5446 21.3464 30.7597 24.2472 30.7597 27.7927V42.8769C30.7597 45.262 29.9501 47.2925 28.331 48.9686C26.7119 50.6446 24.7365 51.4826 22.4373 51.4826C20.1381 51.4826 18.1952 50.6446 16.5437 48.9686C14.9245 47.2925 14.1149 45.262 14.1149 42.8769V21.3142H1.67993V42.8446C1.67993 48.7752 3.72005 53.8677 7.7679 58.0577C11.8158 62.28 16.7056 64.4073 22.4373 64.4073C28.1043 64.4073 32.9618 62.3445 36.9772 58.2511C40.9927 62.3445 45.8501 64.4073 51.5171 64.4073C57.2489 64.4073 62.1387 62.3123 66.1865 58.09C67.0285 57.2197 67.7733 56.285 68.4533 55.3503C68.2267 54.8991 68.0324 54.4478 67.8057 53.9966C67.8381 53.9321 67.8057 53.8999 67.8057 53.8677Z" fill="white"/>
<path d="M95.7844 56.5752C104.297 56.5752 111.199 49.7063 111.199 41.2331C111.199 32.76 104.297 25.8911 95.7844 25.8911C87.2713 25.8911 80.3701 32.76 80.3701 41.2331C80.3701 49.7063 87.2713 56.5752 95.7844 56.5752Z" fill="url(#paint0_linear_1602_8921)"/>
<path d="M99.5086 5.94011C99.5086 3.84509 97.7599 2.13683 95.6226 2.23353C93.712 2.29799 92.1253 3.87732 92.0281 5.77896C91.9633 7.51944 93.0644 9.00207 94.6187 9.48554C94.6187 9.55 94.6187 9.58223 94.6187 9.6467V11.9029C94.6187 12.5153 95.0721 13.0954 95.7198 13.1277C96.3998 13.1599 96.9503 12.6442 96.9503 11.9673V9.61446C96.9503 9.55 96.9503 9.51777 96.9503 9.45331C98.4075 9.00207 99.5086 7.5839 99.5086 5.94011Z" fill="white"/>
<path d="M141.541 38.139C135.745 37.301 133.575 36.0763 133.964 34.0457C134.093 33.4011 134.838 32.273 136.878 31.9184C140.894 31.2416 146.625 32.273 150.932 35.5283L152.713 36.8498C152.519 32.7242 153.523 29.2755 155.693 26.0201C149.669 21.0888 141.153 20.3797 138.012 20.4119C137.461 20.4119 137.008 20.4441 136.587 20.4764H136.554C136.36 20.4764 136.133 20.5086 135.939 20.5408H135.842H135.81C134.903 20.6375 134.029 20.7664 133.122 20.9598C132.636 21.0565 132.118 21.1855 131.6 21.3466C131.211 21.4755 130.823 21.5722 130.499 21.7012L130.434 21.7334C129.851 21.9268 129.301 22.1524 128.783 22.4102L128.75 22.4425C128.491 22.5392 128.264 22.6681 128.038 22.797L127.908 22.8615C127.39 23.1193 126.904 23.4094 126.419 23.7317L126.321 23.7962C126.127 23.9251 125.9 24.054 125.706 24.2152L125.577 24.3119C125.35 24.473 125.123 24.6342 124.929 24.7953L124.897 24.8276C124.702 24.9887 124.476 25.1821 124.281 25.3755L124.184 25.4722C124.022 25.6334 123.86 25.7945 123.666 25.9557L123.536 26.0846C123.375 26.2457 123.245 26.4069 123.083 26.5681L122.695 26.9871L122.954 27.4705C125.188 31.7573 126.321 36.3986 126.321 41.2977C126.321 42.3291 126.257 43.3605 126.159 44.3597L126.095 44.9398L126.613 45.1654C126.84 45.2621 127.066 45.3588 127.293 45.4555L127.422 45.52C128.005 45.7456 128.588 45.9712 129.203 46.1646L129.365 46.2291C129.981 46.4225 130.596 46.5836 131.244 46.7448L131.47 46.8092C131.794 46.8737 132.086 46.9704 132.442 47.0349C132.766 47.0993 133.089 47.1638 133.413 47.2282L133.64 47.2605C133.964 47.3249 134.288 47.3894 134.611 47.4539C135.615 47.615 136.457 47.7762 137.202 47.9373C137.72 48.034 138.206 48.1629 138.659 48.2596C139.145 48.3886 139.598 48.4853 140.019 48.6142C140.602 48.7753 141.153 48.9687 141.606 49.1621C142.319 49.4522 142.901 49.8067 143.322 50.129C143.387 50.1935 143.452 50.2257 143.517 50.2902L143.549 50.3224C143.679 50.4514 143.776 50.548 143.841 50.677C143.938 50.8059 144.002 50.9026 144.035 51.0315C144.067 51.096 144.1 51.1604 144.1 51.2249C144.132 51.3538 144.164 51.4827 144.164 51.6117C144.164 51.6761 144.164 51.7728 144.164 51.8373C144.164 51.9984 144.132 52.1596 144.1 52.3208C144.067 52.4175 144.035 52.5141 144.002 52.6108C144.002 52.6431 143.97 52.6753 143.97 52.7075L143.938 52.7398C143.905 52.772 143.905 52.8365 143.873 52.8687L143.841 52.9009L143.743 53.0298C143.743 53.0621 143.711 53.0621 143.711 53.0943C143.679 53.1265 143.679 53.1265 143.646 53.1588L143.517 53.2877L143.484 53.3199C143.452 53.3522 143.42 53.3844 143.387 53.4166L143.258 53.5133L143.225 53.5455C143.16 53.5778 143.096 53.61 143.031 53.6745L142.934 53.7389C142.837 53.7712 142.772 53.8034 142.675 53.8679L142.578 53.9001C142.48 53.9323 142.383 53.9645 142.254 53.9968L142.157 54.029C142.027 54.0612 141.898 54.0935 141.768 54.1257L141.703 54.1579C141.574 54.1902 141.412 54.2224 141.282 54.2224H141.218C141.056 54.2546 140.894 54.2546 140.732 54.2869H140.699C140.505 54.2869 140.343 54.3191 140.117 54.3191C139.922 54.3191 139.728 54.3191 139.501 54.3191C139.307 54.3191 139.08 54.3191 138.854 54.2869C138.433 54.2546 137.979 54.2224 137.493 54.1579C133.769 53.6745 129.527 52.1274 126.127 50.0323L125.253 49.4844L124.929 50.4514C124.055 53.1588 122.792 55.705 121.205 58.0579L120.784 58.6703L121.367 59.1215C125.868 62.7959 132.409 65.0198 138.951 65.1165C146.496 64.9876 155.11 62.0223 156.664 54.0612L156.697 53.9646C156.729 53.7389 156.761 53.5133 156.794 53.2877L156.826 53.0943C156.858 52.8042 156.891 52.5464 156.891 52.2885V50.677C156.794 44.0373 151.386 39.5572 141.541 38.139Z" fill="white"/>
<path d="M178.134 38.1069C169.358 36.8177 169.488 35.1094 169.52 34.5293C169.585 33.2723 171.172 32.2086 173.536 31.8219C174.216 31.7252 174.928 31.6607 175.641 31.6607C178.847 31.5962 184.384 33.3367 188.011 36.1086L193.613 27.3417C188.173 22.4104 178.911 19.1872 170.265 20.7988C165.861 21.6046 161.684 24.0864 159.287 26.955C157.603 29.0178 156.502 31.4351 156.114 34.1747V35.8508C156.114 41.8135 161.198 45.7135 171.269 47.4217C175.382 48.1308 179.365 49.0011 180.498 50.7416C180.595 50.9027 180.692 51.0961 180.725 51.2895C180.725 51.3539 180.757 51.4184 180.757 51.4829C180.757 51.4829 180.757 51.4829 180.757 51.5151C180.757 51.5473 180.757 51.5796 180.757 51.6118C180.757 51.644 180.757 51.644 180.757 51.6763C180.757 51.7085 180.757 51.773 180.757 51.8052V51.8374C180.757 51.9986 180.725 52.1597 180.692 52.3531C180.498 53.0622 179.98 53.5779 179.073 53.9324C175.382 55.3184 167.318 53.2556 161.781 49.5168L161.748 49.4845L160.356 48.5498L160.485 50.2259C160.55 51.2573 160.485 52.4176 160.291 53.5457C159.935 55.8018 159.125 58.058 158.283 59.4762V59.5084L157.895 60.1531L158.51 60.5721C162.72 63.6018 168.937 65.2133 174.896 65.2133C178.879 65.2133 182.732 64.5043 185.874 63.0216C189.662 61.2167 192.059 58.477 192.998 54.9961C192.998 54.9316 193.03 54.8994 193.03 54.8349C193.063 54.6738 193.095 54.5448 193.127 54.3837C193.127 54.3192 193.16 54.2225 193.192 54.1581L193.225 54.0614C193.225 54.0291 193.225 53.9969 193.225 53.9969C193.257 53.9002 193.257 53.8035 193.289 53.6746C193.289 53.5779 193.322 53.4812 193.322 53.3845L193.354 53.1911C193.354 53.1589 193.354 53.0944 193.354 53.0622C193.386 52.8688 193.386 52.7077 193.386 52.5143C193.386 52.482 193.386 52.4176 193.386 52.3853V50.806C193.419 44.0052 188.011 39.5573 178.134 38.1069Z" fill="white"/>
<defs>
<linearGradient id="paint0_linear_1602_8921" x1="80.3701" y1="41.2313" x2="111.191" y2="41.2313" gradientUnits="userSpaceOnUse">
<stop stop-color="#41C1C6"/>
<stop offset="1" stop-color="#243B7B"/>
</linearGradient>
</defs>
</svg>
