<svg width="200" height="48" viewBox="0 0 200 48" fill="none" xmlns="http://www.w3.org/2000/svg">
<path d="M58.3281 30.3555C58.9375 30.6719 59.6523 30.9062 60.4844 31.0586C61.3164 31.2227 62.1953 31.293 63.1211 31.293C64.0117 31.293 64.8672 31.2109 65.6758 31.0352C66.4844 30.8711 67.1992 30.5898 67.8086 30.1914C68.418 29.793 68.8984 29.2773 69.25 28.6445C69.6016 28.0117 69.7891 27.2148 69.7891 26.2773C69.7891 25.5977 69.6836 25.0117 69.4844 24.4961C69.2734 23.9805 68.9805 23.5234 68.6055 23.125C68.2188 22.7266 67.7617 22.375 67.2227 22.0586C66.6836 21.7422 66.0859 21.4375 65.418 21.1562C64.9258 20.957 64.4805 20.7578 64.0938 20.5703C63.6953 20.3828 63.3672 20.1836 63.0977 19.9844C62.8164 19.7852 62.6055 19.5742 62.4648 19.3516C62.3125 19.1289 62.2422 18.8711 62.2422 18.5898C62.2422 18.332 62.3008 18.1094 62.4414 17.8984C62.5703 17.6875 62.7578 17.5117 63.0039 17.3594C63.2383 17.2188 63.543 17.1016 63.8945 17.0195C64.2461 16.9375 64.6328 16.8906 65.0664 16.8906C65.3711 16.8906 65.6992 16.9141 66.0508 16.9609C66.4023 17.0078 66.7539 17.0898 67.1055 17.1836C67.457 17.2773 67.7969 17.4062 68.125 17.5469C68.4531 17.6992 68.7695 17.875 69.0508 18.0625V14.5586C68.4766 14.3477 67.8555 14.1836 67.1758 14.0781C66.4961 13.9727 65.7227 13.9141 64.8555 13.9141C63.9648 13.9141 63.1211 14.0195 62.3242 14.207C61.5273 14.3945 60.8242 14.6992 60.2148 15.0977C59.6055 15.5078 59.1367 16.0234 58.7852 16.6562C58.4336 17.2891 58.2578 18.0391 58.2578 18.9062C58.2578 20.0312 58.5742 20.9805 59.2188 21.7656C59.8633 22.5625 60.8477 23.2305 62.1602 23.7695C62.6758 23.9805 63.1562 24.1914 63.6016 24.3906C64.0469 24.6016 64.4219 24.8125 64.75 25.0234C65.0781 25.2461 65.3359 25.4805 65.5234 25.7383C65.7109 25.9961 65.8047 26.2891 65.8047 26.6172C65.8047 26.8633 65.7461 27.0859 65.6289 27.2969C65.5117 27.5078 65.3242 27.6836 65.0898 27.8359C64.8555 27.9883 64.5508 28.1055 64.1992 28.1875C63.8477 28.2812 63.4258 28.3164 62.957 28.3164C62.1367 28.3164 61.3398 28.1758 60.543 27.8945C59.7461 27.6133 59.0078 27.1797 58.3281 26.6055V30.3555ZM91.2461 31V23.5352C91.2461 20.3242 89.9336 18.707 87.332 18.707C85.5508 18.707 84.2148 19.457 83.3008 20.9453C82.668 19.457 81.5078 18.707 79.8203 18.707C79 18.707 78.2383 18.918 77.5469 19.3164C76.8555 19.7148 76.3164 20.2422 75.9414 20.875H75.8945V19H72.1914V31H75.8945V24.332C75.8945 23.4766 76.082 22.7969 76.457 22.293C76.832 21.8008 77.3477 21.543 77.9805 21.543C79.2344 21.543 79.8672 22.3984 79.8672 24.0859V31H83.5703V24.2852C83.5703 23.5117 83.7578 22.8555 84.1445 22.3281C84.5195 21.8125 85.0234 21.543 85.6328 21.543C86.9102 21.543 87.5547 22.4219 87.5547 24.1562V31H91.2461ZM104.16 31V23.8281C104.16 20.418 102.449 18.707 99.0273 18.707C98.2891 18.707 97.4688 18.8125 96.5781 19.0117C95.6875 19.2227 94.9844 19.457 94.4688 19.7148V22.5039C95.7578 21.6602 97.1172 21.2266 98.5469 21.2266C99.9648 21.2266 100.68 21.8828 100.68 23.1953L97.4219 23.6289C94.6562 23.9922 93.2852 25.3398 93.2852 27.6602C93.2852 28.7617 93.6133 29.6523 94.2812 30.3086C94.9492 30.9648 95.8633 31.293 97.0352 31.293C98.6055 31.293 99.8008 30.625 100.609 29.2773H100.656V31H104.16ZM100.68 26.125C100.68 26.8633 100.457 27.4727 100.023 27.9531C99.5781 28.4336 99.0156 28.668 98.3242 28.668C97.8203 28.668 97.4219 28.5391 97.1289 28.2695C96.8359 28 96.6953 27.6484 96.6953 27.2266C96.6953 26.3008 97.293 25.7617 98.5 25.5977L100.68 25.3164V26.125ZM114.918 22.3398V18.9297C114.695 18.8359 114.391 18.7891 114.004 18.7891C112.48 18.7891 111.426 19.6094 110.84 21.2266H110.793V19H107.09V31H110.793V25.2695C110.793 24.2617 111.016 23.4531 111.473 22.8672C111.918 22.2812 112.551 21.9766 113.359 21.9766C113.945 21.9766 114.473 22.1055 114.918 22.3398ZM124.609 30.8594V28.1172C124.188 28.3516 123.789 28.457 123.402 28.457C122.406 28.457 121.914 27.8359 121.914 26.582V21.7305H124.609V19H121.914V15.3555L118.223 16.4102V19H116.277V21.7305H118.223V27.2266C118.223 29.9453 119.523 31.293 122.137 31.293C123.238 31.293 124.059 31.1523 124.609 30.8594ZM148.246 31V14.1953H144.449V20.8984H137.488V14.1953H133.703V31H137.488V24.1562H144.449V31H148.246ZM157.457 31.293C159.484 31.293 161.078 30.7188 162.25 29.5586C163.422 28.4102 164.008 26.8281 164.008 24.8359C164.008 22.9961 163.434 21.5195 162.309 20.3945C161.172 19.2695 159.613 18.707 157.621 18.707C155.594 18.707 153.988 19.2695 152.805 20.3945C151.609 21.5195 151.023 23.0664 151.023 25.0469C151.023 26.9688 151.586 28.4922 152.734 29.6172C153.883 30.7422 155.453 31.293 157.457 31.293ZM157.551 21.543C159.332 21.543 160.234 22.668 160.234 24.9062C160.234 27.2734 159.344 28.457 157.574 28.457C155.711 28.457 154.785 27.3086 154.785 25C154.785 23.8984 155.02 23.0547 155.512 22.4453C155.992 21.8477 156.672 21.543 157.551 21.543ZM185.465 31V23.5352C185.465 20.3242 184.152 18.707 181.551 18.707C179.77 18.707 178.434 19.457 177.52 20.9453C176.887 19.457 175.727 18.707 174.039 18.707C173.219 18.707 172.457 18.918 171.766 19.3164C171.074 19.7148 170.535 20.2422 170.16 20.875H170.113V19H166.41V31H170.113V24.332C170.113 23.4766 170.301 22.7969 170.676 22.293C171.051 21.8008 171.566 21.543 172.199 21.543C173.453 21.543 174.086 22.3984 174.086 24.0859V31H177.789V24.2852C177.789 23.5117 177.977 22.8555 178.363 22.3281C178.738 21.8125 179.242 21.543 179.852 21.543C181.129 21.543 181.773 22.4219 181.773 24.1562V31H185.465ZM199.176 26.0547V24.4961C199.176 22.7148 198.695 21.3086 197.734 20.2656C196.773 19.2344 195.426 18.707 193.68 18.707C191.992 18.707 190.562 19.293 189.414 20.4531C188.254 21.625 187.68 23.1953 187.68 25.1875C187.68 27.1094 188.207 28.6094 189.285 29.6875C190.352 30.7656 191.852 31.293 193.797 31.293C195.566 31.293 197.008 31 198.121 30.4023V27.7305C197.113 28.3633 195.953 28.668 194.641 28.668C192.566 28.668 191.465 27.8008 191.348 26.0547H199.176ZM195.742 23.7812H191.324C191.418 23.0547 191.676 22.4336 192.109 21.9414C192.543 21.4492 193.059 21.2031 193.656 21.2031C195.039 21.2031 195.742 22.0703 195.742 23.7812Z" fill="#FDB813"/>
<path d="M133.216 45H135.257C135.911 45 136.453 44.8145 136.883 44.4434C137.312 44.0723 137.527 43.5889 137.527 42.9883C137.527 42.5098 137.386 42.1191 137.103 41.8164C136.819 41.5137 136.438 41.3379 135.97 41.2793V41.2598C136.346 41.1377 136.644 40.9277 136.858 40.6348C137.073 40.3418 137.181 40 137.181 39.5996C137.181 39.126 137 38.7402 136.648 38.4424C136.292 38.1494 135.813 37.998 135.208 37.998H133.216V45ZM134.036 38.7402H134.979C135.872 38.7402 136.321 39.082 136.321 39.7607C136.321 40.1562 136.189 40.4639 135.936 40.6787C135.677 40.8936 135.325 41.001 134.876 41.001H134.036V38.7402ZM134.036 41.7383H134.979C136.102 41.7383 136.668 42.1533 136.668 42.9785C136.668 43.3789 136.531 43.6914 136.268 43.916C136.004 44.1455 135.628 44.2578 135.149 44.2578H134.036V41.7383ZM144.82 40H143.99L142.569 43.8574C142.521 44.0283 142.486 44.1504 142.472 44.2285H142.442C142.389 44.0234 142.354 43.8965 142.34 43.8477L140.987 40H140.099L142.052 44.9902L141.651 45.9375C141.446 46.4209 141.144 46.6602 140.743 46.6602C140.597 46.6602 140.44 46.6309 140.27 46.5723V47.29C140.406 47.334 140.582 47.3535 140.792 47.3535C141.534 47.3535 142.11 46.8359 142.521 45.8008L144.82 40ZM160.837 37.998H159.948L158.518 43.3887C158.439 43.6719 158.396 43.8965 158.386 44.0625H158.366C158.337 43.8135 158.298 43.5938 158.249 43.4082L156.765 37.998H155.979L154.431 43.3691C154.343 43.667 154.294 43.9014 154.279 44.0723H154.255C154.235 43.8281 154.196 43.5938 154.138 43.3691L152.648 37.998H151.745L153.796 45H154.748L156.198 39.873C156.262 39.6484 156.306 39.4141 156.325 39.1699H156.345C156.354 39.4287 156.394 39.668 156.457 39.8828L157.897 45H158.859L160.837 37.998ZM165.62 45.1172C166.377 45.1172 166.982 44.8779 167.432 44.3994C167.881 43.9209 168.11 43.2812 168.11 42.4805C168.11 41.6699 167.9 41.0303 167.48 40.5713C167.061 40.1123 166.479 39.8828 165.737 39.8828C164.956 39.8828 164.336 40.1221 163.877 40.5908C163.418 41.0645 163.188 41.7188 163.188 42.5586C163.188 43.3301 163.408 43.9502 163.848 44.4189C164.287 44.8877 164.878 45.1172 165.62 45.1172ZM165.679 40.5566C166.196 40.5566 166.592 40.7275 166.87 41.0645C167.148 41.4062 167.29 41.8848 167.29 42.5098C167.29 43.1299 167.148 43.6084 166.87 43.9404C166.592 44.2773 166.196 44.4434 165.679 44.4434C165.171 44.4434 164.766 44.2725 164.463 43.9307C164.16 43.5889 164.009 43.125 164.009 42.5293C164.009 41.9141 164.155 41.4355 164.458 41.084C164.756 40.7324 165.161 40.5566 165.679 40.5566ZM171.087 44.8193C171.463 45.0195 171.907 45.1172 172.425 45.1172C172.684 45.1172 172.933 45.0879 173.172 45.0293C173.406 44.9707 173.616 44.8828 173.802 44.7607C173.982 44.6436 174.129 44.4922 174.236 44.3066C174.344 44.126 174.402 43.9111 174.402 43.6621C174.402 43.4619 174.368 43.2861 174.3 43.1396C174.231 42.9932 174.139 42.8662 174.017 42.7539C173.89 42.6416 173.743 42.5391 173.567 42.4512C173.392 42.3633 173.191 42.2754 172.972 42.1875C172.806 42.124 172.654 42.0654 172.527 42.0068C172.396 41.9531 172.283 41.8896 172.195 41.8213C172.103 41.7529 172.034 41.6748 171.985 41.5869C171.937 41.499 171.917 41.3916 171.917 41.2598C171.917 41.1572 171.937 41.0645 171.985 40.9766C172.034 40.8887 172.098 40.8154 172.186 40.752C172.273 40.6934 172.376 40.6445 172.498 40.6104C172.615 40.5762 172.752 40.5566 172.903 40.5566C173.382 40.5566 173.802 40.6787 174.173 40.918V40.1074C173.831 39.9609 173.44 39.8828 173.011 39.8828C172.767 39.8828 172.527 39.917 172.298 39.9756C172.068 40.0391 171.863 40.1318 171.688 40.2539C171.507 40.376 171.365 40.5273 171.258 40.708C171.15 40.8887 171.097 41.0938 171.097 41.3281C171.097 41.5234 171.121 41.6895 171.18 41.8311C171.238 41.9775 171.321 42.1045 171.434 42.2168C171.546 42.3291 171.688 42.4316 171.854 42.5195C172.02 42.6074 172.215 42.6953 172.439 42.7832C172.596 42.8467 172.747 42.9053 172.884 42.9639C173.021 43.0225 173.143 43.0859 173.245 43.1543C173.348 43.2275 173.431 43.3105 173.489 43.4033C173.548 43.4961 173.582 43.6084 173.582 43.7402C173.582 44.209 173.23 44.4434 172.527 44.4434C172 44.4434 171.521 44.2822 171.087 43.96V44.8193ZM177.335 44.8193C177.711 45.0195 178.155 45.1172 178.673 45.1172C178.932 45.1172 179.181 45.0879 179.42 45.0293C179.654 44.9707 179.864 44.8828 180.05 44.7607C180.23 44.6436 180.377 44.4922 180.484 44.3066C180.592 44.126 180.65 43.9111 180.65 43.6621C180.65 43.4619 180.616 43.2861 180.548 43.1396C180.479 42.9932 180.387 42.8662 180.265 42.7539C180.138 42.6416 179.991 42.5391 179.815 42.4512C179.64 42.3633 179.439 42.2754 179.22 42.1875C179.054 42.124 178.902 42.0654 178.775 42.0068C178.644 41.9531 178.531 41.8896 178.443 41.8213C178.351 41.7529 178.282 41.6748 178.233 41.5869C178.185 41.499 178.165 41.3916 178.165 41.2598C178.165 41.1572 178.185 41.0645 178.233 40.9766C178.282 40.8887 178.346 40.8154 178.434 40.752C178.521 40.6934 178.624 40.6445 178.746 40.6104C178.863 40.5762 179 40.5566 179.151 40.5566C179.63 40.5566 180.05 40.6787 180.421 40.918V40.1074C180.079 39.9609 179.688 39.8828 179.259 39.8828C179.015 39.8828 178.775 39.917 178.546 39.9756C178.316 40.0391 178.111 40.1318 177.936 40.2539C177.755 40.376 177.613 40.5273 177.506 40.708C177.398 40.8887 177.345 41.0938 177.345 41.3281C177.345 41.5234 177.369 41.6895 177.428 41.8311C177.486 41.9775 177.569 42.1045 177.682 42.2168C177.794 42.3291 177.936 42.4316 178.102 42.5195C178.268 42.6074 178.463 42.6953 178.688 42.7832C178.844 42.8467 178.995 42.9053 179.132 42.9639C179.269 43.0225 179.391 43.0859 179.493 43.1543C179.596 43.2275 179.679 43.3105 179.737 43.4033C179.796 43.4961 179.83 43.6084 179.83 43.7402C179.83 44.209 179.479 44.4434 178.775 44.4434C178.248 44.4434 177.77 44.2822 177.335 43.96V44.8193ZM184.164 45.1074C184.315 45.1074 184.447 45.0537 184.555 44.9463C184.662 44.8389 184.716 44.7119 184.716 44.5605C184.716 44.4141 184.662 44.2822 184.555 44.1748C184.447 44.0674 184.315 44.0088 184.164 44.0088C184.013 44.0088 183.886 44.0674 183.778 44.1748C183.671 44.2822 183.622 44.4141 183.622 44.5605C183.622 44.7119 183.671 44.8389 183.778 44.9463C183.886 45.0537 184.013 45.1074 184.164 45.1074ZM191.984 40H191.14L189.812 43.6523C189.738 43.8574 189.685 44.082 189.655 44.3311H189.636C189.611 44.1357 189.553 43.9014 189.46 43.6328L188.19 40H187.312L189.206 45H189.992L191.984 40ZM198.999 45V41.9434C198.999 41.2793 198.853 40.7666 198.564 40.415C198.271 40.0635 197.856 39.8828 197.31 39.8828C196.592 39.8828 196.045 40.2002 195.669 40.8301H195.649V40H194.849V45H195.649V42.1484C195.649 41.6895 195.776 41.3135 196.04 41.0107C196.304 40.708 196.636 40.5566 197.036 40.5566C197.808 40.5566 198.198 41.0889 198.198 42.1484V45H198.999Z" fill="white"/>
<path d="M38.4101 13.0719L28.7501 5.34773C25.7409 3.23939 21.1217 3.35439 18.2276 5.59689L7.24504 13.0911C5.32838 14.5861 3.81421 17.6528 3.81421 20.0678V33.2928C3.81421 38.1803 7.78171 42.1669 12.6692 42.1669H33.3309C38.2184 42.1669 42.1859 38.1994 42.1859 33.3119V20.3169C42.1859 17.7294 40.5184 14.5478 38.4101 13.0719Z" fill="#FDB813"/>
<rect x="21.5889" y="14.2515" width="2.82209" height="21.8712" rx="1.41104" fill="#1E1965"/>
<circle cx="16.0858" cy="25.1165" r="2.39877" fill="#1E1965"/>
<circle cx="29.9142" cy="25.1165" r="2.39877" fill="#1E1965"/>
</svg>
