<svg width="32" height="32" viewBox="0 0 32 32" fill="none" xmlns="http://www.w3.org/2000/svg">
<path d="M10.7307 26.1565C20.4074 26.1565 25.6991 18.1461 25.6991 11.1997C25.6991 10.9722 25.6945 10.7457 25.6843 10.5202C26.7115 9.77823 27.6043 8.85226 28.3085 7.79816C27.3659 8.21683 26.3515 8.49866 25.2874 8.62575C26.3735 7.97495 27.2074 6.94547 27.6008 5.71821C26.5843 6.32033 25.4587 6.75795 24.2602 6.99422C23.3001 5.97245 21.9334 5.33337 20.42 5.33337C17.5148 5.33337 15.1589 7.68755 15.1589 10.5894C15.1589 11.0019 15.205 11.4032 15.2953 11.788C10.9229 11.5682 7.04578 9.47642 4.451 6.29573C3.99919 7.07258 3.73867 7.97498 3.73867 8.93785C3.73867 10.7616 4.66744 12.3717 6.07979 13.3136C5.21667 13.2869 4.40587 13.0502 3.6972 12.6561C3.69642 12.6781 3.69642 12.6997 3.69642 12.7232C3.69642 15.269 5.50983 17.3946 7.91703 17.8763C7.47497 17.9967 7.00986 18.0612 6.52981 18.0612C6.19134 18.0612 5.86158 18.028 5.54106 17.9664C6.21082 20.0551 8.15297 21.575 10.4555 21.6175C8.65495 23.0277 6.38672 23.8677 3.92152 23.8677C3.4974 23.8677 3.07841 23.8436 2.66663 23.7949C4.99493 25.2861 7.75957 26.1562 10.731 26.1562" fill="white"/>
</svg>
