<svg width="320" height="320" viewBox="0 0 320 320" fill="none" xmlns="http://www.w3.org/2000/svg">
<g opacity="0.04" clip-path="url(#clip0_1517_9004)">
<path d="M159.375 250.312C170.765 250.312 180 259.547 180 270.938C180 282.328 170.765 291.562 159.375 291.562C147.984 291.562 138.75 282.328 138.75 270.938C138.75 259.547 147.984 250.312 159.375 250.312ZM316.022 114.457C321.072 109.75 321.35 101.84 316.644 96.79C275.563 52.7131 219.934 28.4381 159.997 28.4375C100.066 28.4381 44.4367 52.7131 3.35544 96.79C-1.35144 101.84 -1.07269 109.749 3.97731 114.457C9.02794 119.163 16.9373 118.886 21.6442 113.835C57.9442 74.8875 107.079 53.4381 160.002 53.4375C212.92 53.4381 262.055 74.8875 298.355 113.835C300.817 116.477 304.155 117.812 307.502 117.812C310.554 117.812 313.614 116.701 316.022 114.457ZM270.678 166.089C275.578 161.226 275.608 153.311 270.744 148.411C240.378 117.815 201.047 100.966 159.997 100.967C118.937 100.967 79.6061 117.818 49.2486 148.413C44.3861 153.313 44.4173 161.227 49.3173 166.09C54.2179 170.952 62.1323 170.921 66.9948 166.021C92.6229 140.193 125.652 125.967 159.997 125.967C194.333 125.966 227.362 140.191 252.999 166.022C255.443 168.484 258.657 169.717 261.872 169.717C265.055 169.717 268.24 168.508 270.678 166.089ZM115.719 217.943C127.295 206.473 144.269 199.062 158.964 199.062C158.965 199.062 158.968 199.062 158.97 199.062H159.874C159.877 199.062 159.877 199.062 159.88 199.062C174.573 199.062 191.547 206.473 203.123 217.943C208.027 222.801 215.942 222.766 220.8 217.86C225.659 212.956 225.622 205.041 220.719 200.182C204.456 184.071 181.145 174.062 159.882 174.062C159.879 174.062 159.875 174.062 159.872 174.062H158.972C158.968 174.062 158.966 174.062 158.962 174.062C137.698 174.062 114.385 184.071 98.1236 200.182C93.2192 205.041 93.1823 212.956 98.0417 217.86C100.486 220.327 103.704 221.562 106.922 221.562C110.101 221.562 113.282 220.357 115.719 217.943Z" fill="white"/>
</g>
<defs>
<clipPath id="clip0_1517_9004">
<rect width="320" height="320" fill="white"/>
</clipPath>
</defs>
</svg>
