<svg width="32" height="32" viewBox="0 0 32 32" fill="none" xmlns="http://www.w3.org/2000/svg">
<path fill-rule="evenodd" clip-rule="evenodd" d="M26.4337 7.24105C27.5759 7.55036 28.4765 8.45619 28.784 9.60504C29.3551 11.7039 29.3332 16.0784 29.3332 16.0784C29.3332 16.0784 29.3332 20.4308 28.784 22.5296C28.4765 23.6785 27.5759 24.5843 26.4337 24.8936C24.3469 25.446 15.9999 25.446 15.9999 25.446C15.9999 25.446 7.67484 25.446 5.56612 24.8715C4.42389 24.5622 3.52329 23.6564 3.21577 22.5076C2.66663 20.4308 2.66663 16.0563 2.66663 16.0563C2.66663 16.0563 2.66663 11.7039 3.21577 9.60504C3.52329 8.45619 4.44586 7.52827 5.56612 7.21896C7.65288 6.66663 15.9999 6.66663 15.9999 6.66663C15.9999 6.66663 24.3469 6.66663 26.4337 7.24105ZM13.3419 12.0353L20.2831 16.0563L13.3419 20.0773V12.0353Z" fill="white"/>
</svg>
